<?xml version="1.0" encoding="UTF-8"?>
<svg width="194mm" height="200.4mm" version="1.1" viewBox="0 0 194 200.4" xmlns="http://www.w3.org/2000/svg">
		<g transform="translate(-8.819 -48.64)">
				<g transform="matrix(.3528 0 0 -.3528 8.819 249)">
						<g transform="scale(.1)">
								<path d="m0 0h5500v5680h-5500z" style="fill:#cccccc"/>
								<path d="m684.2 3163s1.516-21.22-8-21c-8.609 0.2-189.6 529-415 504 0 0 195.2 81.23 423-483" style="fill:#ffffff"/>
								<path d="m684.2 3163s1.516-21.22-8-21c-8.609 0.2-189.6 529-415 504 0 0 195.2 81.23 423-483z" style="fill:none;stroke-miterlimit:10;stroke-width:1.892;stroke:#000000"/>
								<path d="m723.2 3196s-5.805-20.11-14-17c-8.711 3.46 1.004 562.3-220 616 0 0 211.7 9.45 234-599" style="fill:#ffffff"/>
								<path d="m723.2 3196s-5.805-20.11-14-17c-8.711 3.46 1.004 562.3-220 616 0 0 211.7 9.45 234-599z" style="fill:none;stroke-miterlimit:10;stroke-width:1.892;stroke:#000000"/>
								<path d="m1026 2730s17.62-10.3 12-18c-4.73-7.2-545.6 133.6-650-68 0 0 40.82 207.5 638 86" style="fill:#ffffff"/>
								<path d="m1026 2730s17.62-10.3 12-18c-4.73-7.2-545.6 133.6-650-68 0 0 40.82 207.5 638 86z" style="fill:none;stroke-miterlimit:10;stroke-width:1.892;stroke:#000000"/>
								<path d="m995.2 2618s20.14-4.42 18-13c-2.99-8.82-560.7-45.58-596-270 0 0-26.86 209.9 578 283" style="fill:#ffffff"/>
								<path d="m995.2 2618s20.14-4.42 18-13c-2.99-8.82-560.7-45.58-596-270 0 0-26.86 209.9 578 283z" style="fill:none;stroke-miterlimit:10;stroke-width:1.892;stroke:#000000"/>
								<path d="m948.2 2679s19.96-7.58 16-16c-3.648-8.04-560.8 36.95-628-180 0 0 3.645 211.7 612 196" style="fill:#ffffff"/>
								<path d="m948.2 2679s19.96-7.58 16-16c-3.648-8.04-560.8 36.95-628-180 0 0 3.645 211.7 612 196z" style="fill:none;stroke-miterlimit:10;stroke-width:1.892;stroke:#000000"/>
								<path d="m831.2 2879s14.04-15.16 7-21c-7.02-5.62-488.2 278.8-644 113 0 0 96.34 188.9 637-92" style="fill:#ffffff"/>
								<path d="m831.2 2879s14.04-15.16 7-21c-7.02-5.62-488.2 278.8-644 113 0 0 96.34 188.9 637-92z" style="fill:none;stroke-miterlimit:10;stroke-width:1.892;stroke:#000000"/>
								<path d="m748.2 2833s15.67-13.53 9-20c-6-6.52-516.3 221.6-652 40 0 0 74.03 197.8 643-20" style="fill:#ffffff"/>
								<path d="m748.2 2833s15.67-13.53 9-20c-6-6.52-516.3 221.6-652 40 0 0 74.03 197.8 643-20z" style="fill:none;stroke-miterlimit:10;stroke-width:1.892;stroke:#000000"/>
								<path d="m719.2 2788s17.74-11.02 12-18c-5.035-7.61-541.6 148.8-651-50 0 0 46.02 206.5 639 68" style="fill:#ffffff"/>
								<path d="m719.2 2788s17.74-11.02 12-18c-5.035-7.61-541.6 148.8-651-50 0 0 46.02 206.5 639 68z" style="fill:none;stroke-miterlimit:10;stroke-width:1.892;stroke:#000000"/>
								<path d="m837.2 2781s12.47-16.53 5-21c-7.949-5.1-448.7 338.6-624 194 0 0 119.3 175.2 619-173" style="fill:#ffffff"/>
								<path d="m837.2 2781s12.47-16.53 5-21c-7.949-5.1-448.7 338.6-624 194 0 0 119.3 175.2 619-173z" style="fill:none;stroke-miterlimit:10;stroke-width:1.892;stroke:#000000"/>
								<path d="m620.2 3100s6.148-20.05-3-22c-8.449-2.45-323.1 459.6-534 376 0 0 166.9 129.8 537-354" style="fill:#ffffff"/>
								<path d="m620.2 3100s6.148-20.05-3-22c-8.449-2.45-323.1 459.6-534 376 0 0 166.9 129.8 537-354z" style="fill:none;stroke-miterlimit:10;stroke-width:1.892;stroke:#000000"/>
								<path d="m627.2 3023s10.92-17.94 3-22c-8.328-4.02-415.2 379.3-603 252 0 0 134.9 162.9 600-230" style="fill:#ffffff"/>
								<path d="m627.2 3023s10.92-17.94 3-22c-8.328-4.02-415.2 379.3-603 252 0 0 134.9 162.9 600-230z" style="fill:none;stroke-miterlimit:10;stroke-width:1.892;stroke:#000000"/>
								<path d="m626.2 2975s12.27-16.93 5-22c-8.148-4.49-448.9 339.2-624 195 0 0 119.1 174.8 619-173" style="fill:#ffffff"/>
								<path d="m626.2 2975s12.27-16.93 5-22c-8.148-4.49-448.9 339.2-624 195 0 0 119.1 174.8 619-173z" style="fill:none;stroke-miterlimit:10;stroke-width:1.892;stroke:#000000"/>
								<path d="m602.2 2956c5.152-66.49 16.02-138.8 35-173 0 0-39.45-136.5 57-282 0 0-4.051-78.86 14-114 0 0 43.55-92.46 96-101 43.07-7.38 139-41.14 247-57 0 0 189-154.5 154-295 0 0-4.65-180.7-44-198 0 0 127.4 122.9 22-62l-49-207s282 237.9 110 36l-110-286s216 201.9 137 110l-35-97s474.8 298.9 136-27c0 0 87.95 39.94 136 9 0 0 75.15 13.34 66-4 0 0-228.4-114.7-268-317 0 0 92.35 109.9 57-9l5-127s43.55 237.1 39-176c0 0 211.4 197.5 84-31v-185s167 180.3 97 40c0 0 109.6 96.34 66-71 0 0-9.25-114.3 39 9 0 0 176.2 336.5 110 48 0 0-8.65-210.9 44-48 0 0 4.55-114.5 106-194 0 0-13.45 559.1 127 163l44-180s31.15 100.9 27 158c0 0 162.6 180.5 88-88 0 0 167 250.9 132 106 0 0-83.85-176.3-66-229 0 0 184.6 382.7 198 400 0 0-22.25-466.1 97-70 0 0 61.15-132.1 30-180 0 0 88.35 87.54 80 123 0 0 50.15 89.94 81-60 0 0 19.75-103.1 37-68 0 0 44.35-263.9 58-13 0 0 17.15 149.5-62 277 0 0 8.75 35.34-22 79 0 0 149.6-237.3 70 80 0 0 123.6-88.46 137-88 0 0-149.8 254.7-53 202 0 0-57.25 114.3 141-18 0 0-176.2 176.3 17 71 0 0 88.36-70.66 5 39 0 0-158.6 176.3 83-22 0 0 128-180.1 137-211 0 0-110.2 321.3-159 352 0 0 92.76 400.5 546 229 0 0 74.76-189.3 123 13 0 0 141 70.54 264-233 0 0 44.16 149.5 35 180 0 0 75.16-12.86 66 0 0 0 145.6-48.06 159-39 0 0 74.56-75.06 79-35 0 0 101.2-31.26 79 8 0 0 96.96-171.3 101-211l27 154 22-31s17.36 83.94 9 97c-9.24 13.34 219.6-74.66 272-303l22-93s66.36 162.9 49 207c0 0 56.96-8.859 61-57 0 0 44.36 254.9-8 321 0 0 47.96 8.74 61-31v79s79.36-8.46 79 18c0 0 48.76 43.94 71-9 0 0-136.6 387.3 66 176 0 0 78.96-118.7 39 88-39.24 206.9-83.24 224.5-30 229 0 0 8.36 39.54-14 57-21.64 17.74 14 0 14 0s52.36-43.86-5 198c0 0 70.56-17.46-61 304 0 0 30.36 26.14-14 119 0 0 88.36-48.86 119-31 0 0-4.24 17.34-39 61 0 0-238 603.2-14 361 0 0 130.7-148.9 60 102 0 0-99.91 264-91 311l-4725-253" style="fill:#ffffff"/>
								<path d="m602.2 2956c5.152-66.49 16.02-138.8 35-173 0 0-39.45-136.5 57-282 0 0-4.051-78.86 14-114 0 0 43.55-92.46 96-101 43.07-7.38 139-41.14 247-57 0 0 189-154.5 154-295 0 0-4.65-180.7-44-198 0 0 127.4 122.9 22-62l-49-207s282 237.9 110 36l-110-286s216 201.9 137 110l-35-97s474.8 298.9 136-27c0 0 87.95 39.94 136 9 0 0 75.15 13.34 66-4 0 0-228.4-114.7-268-317 0 0 92.35 109.9 57-9l5-127s43.55 237.1 39-176c0 0 211.4 197.5 84-31v-185s167 180.3 97 40c0 0 109.6 96.34 66-71 0 0-9.25-114.3 39 9 0 0 176.2 336.5 110 48 0 0-8.65-210.9 44-48 0 0 4.55-114.5 106-194 0 0-13.45 559.1 127 163l44-180s31.15 100.9 27 158c0 0 162.6 180.5 88-88 0 0 167 250.9 132 106 0 0-83.85-176.3-66-229 0 0 184.6 382.7 198 400 0 0-22.25-466.1 97-70 0 0 61.15-132.1 30-180 0 0 88.35 87.54 80 123 0 0 50.15 89.94 81-60 0 0 19.75-103.1 37-68 0 0 44.35-263.9 58-13 0 0 17.15 149.5-62 277 0 0 8.75 35.34-22 79 0 0 149.6-237.3 70 80 0 0 123.6-88.46 137-88 0 0-149.8 254.7-53 202 0 0-57.25 114.3 141-18 0 0-176.2 176.3 17 71 0 0 88.36-70.66 5 39 0 0-158.6 176.3 83-22 0 0 128-180.1 137-211 0 0-110.2 321.3-159 352 0 0 92.76 400.5 546 229 0 0 74.76-189.3 123 13 0 0 141 70.54 264-233 0 0 44.16 149.5 35 180 0 0 75.16-12.86 66 0 0 0 145.6-48.06 159-39 0 0 74.56-75.06 79-35 0 0 101.2-31.26 79 8 0 0 96.96-171.3 101-211l27 154 22-31s17.36 83.94 9 97c-9.24 13.34 219.6-74.66 272-303l22-93s66.36 162.9 49 207c0 0 56.96-8.859 61-57 0 0 44.36 254.9-8 321 0 0 47.96 8.74 61-31v79s79.36-8.46 79 18c0 0 48.76 43.94 71-9 0 0-136.6 387.3 66 176 0 0 78.96-118.7 39 88-39.24 206.9-83.24 224.5-30 229 0 0 8.36 39.54-14 57-21.64 17.74 14 0 14 0s52.36-43.86-5 198c0 0 70.56-17.46-61 304 0 0 30.36 26.14-14 119 0 0 88.36-48.86 119-31 0 0-4.24 17.34-39 61 0 0-238 603.2-14 361 0 0 130.7-148.9 60 102 0 0-99.91 264-91 311z" style="fill:none;stroke-miterlimit:10;stroke-width:11;stroke:#000000"/>
								<path d="m5327 3207c6.55-1.94 30.81-14.3 45-32 0 0 74.36-119.2 17 83 0 0-101 317-4 194 0 0 65.76-79.45 31 70-42.95 180.8-71 251-71 251s127.8-52.85-167 383l97-40s-215.8 435.8-453 493l-88 66s422 418 281 823c0 0-74.64 56.95-180-44 0 0-70.64-53.05-137-35 0 0-338.4-13.65-360-14-22.44 0.35-405.2 409.6-1127 216 0 0-57.04-22.05-105-9 0 0-202.8 176.2-740-75 0 0-109.6-21.65-127-22-17.85 0.35-48.65 0.35-137-70-87.65-70.45-92.05-79.25-114-97 0 0-180.4-123-233-132 0 0-127.8-70.25-176-180l-40-13s-17.45-79.65-22-93c0 0-52.65-39.45-61-101 0 0-97.25-66.05-93-114 0 0-17.45-57.65-26-110 0 0-79.45-53.25-71-84 0 0-83.25-154-70-229 0 0-70.45 4.55-101-22 0 0-9.05-52.65-27-57 0 0-30.45-13.25-4-57 0 0-17.65-31.05-22-49 0 0 8.75-30.45-40-92 0 0-70.05-206.8-48-264 0 0 4.352-52.85-26-70 0 0-40.05 3.95 52-128 0 0 9.148-13.25-26-40 0 0-189.2-39.25-216-220 0 0-149.2-162.4-149-220-0.25-25 2.73-59.62 10-110 0 0-5.852-92.06 298-101 303.4-8.66 4430 345 4430 345" style="fill:#cc7326"/>
								<path d="m5327 3207c6.55-1.94 30.81-14.3 45-32 0 0 74.36-119.2 17 83 0 0-101 317-4 194 0 0 65.76-79.45 31 70-42.95 180.8-71 251-71 251s127.8-52.85-167 383l97-40s-215.8 435.8-453 493l-88 66s422 418 281 823c0 0-74.64 56.95-180-44 0 0-70.64-53.05-137-35 0 0-338.4-13.65-360-14-22.44 0.35-405.2 409.6-1127 216 0 0-57.04-22.05-105-9 0 0-202.8 176.2-740-75 0 0-109.6-21.65-127-22-17.85 0.35-48.65 0.35-137-70-87.65-70.45-92.05-79.25-114-97 0 0-180.4-123-233-132 0 0-127.8-70.25-176-180l-40-13s-17.45-79.65-22-93c0 0-52.65-39.45-61-101 0 0-97.25-66.05-93-114 0 0-17.45-57.65-26-110 0 0-79.45-53.25-71-84 0 0-83.25-154-70-229 0 0-70.45 4.55-101-22 0 0-9.05-52.65-27-57 0 0-30.45-13.25-4-57 0 0-17.65-31.05-22-49 0 0 8.75-30.45-40-92 0 0-70.05-206.8-48-264 0 0 4.352-52.85-26-70 0 0-40.05 3.95 52-128 0 0 9.148-13.25-26-40 0 0-189.2-39.25-216-220 0 0-149.2-162.4-149-220-0.25-25 2.73-59.62 10-110 0 0-5.852-92.06 298-101 303.4-8.66 4430 345 4430 345z" style="fill:none;stroke-miterlimit:10;stroke-width:11;stroke:#000000"/>
								<path d="m758.2 2961c-274.9 433.6-116-187-116-187 96.35-378.3 1522 35 1522 35s1857 334.8 1980 379c123.2 43.75 1170-27 1170-27l-61 185c-713 510.6-924.2 255.4-1074 299-149.4 44.35-123-61.25-158-70-35.44-8.85-466.6 264-537 255-70.44-8.65-349.2 252.6-185-97 176.2-373.6-642.2-430.8-827-308-184.8 123.6 79-202 79-202 202.6-220-176-35-176-35-378.2 140.6-642.2-141-677-150-35.65-8.65-88.45-43.85-97 27-9.05 69.95-91.66 253.7-440-36-220.2-182.3-372 60-372 60l-31-128" style="fill:#cc7326"/>
								<path d="m3498 3811c-70.04-8.86-349.1 252.3-184-97 182.2-387-642.8-431-828-308-184.4 123.3 80-202 80-202 202-220.3-176-35-176-35-378.8 140.3-642.8-141.3-678-150-35.25-8.86-88.05-44.05-97 26-8.65 70.74-89.82 252.6-440-35-233.4-190.7-382 45-382 45l-35-111c-275 438-109-203-109-203 96.56-378.9 1529 49 1529 49s1857 334.5 1980 379c123.6 43.54 1161-26 1161-26l-61 190c-712.4 510.8-914.8 249.1-1064 293-150 44.14-123.6-61.46-159-70-35.04-9.05-466.2 263.8-537 255" style="fill:#e8803a"/>
								<path d="m3513 3792c-70.64-9.05-342.7 255.3-185-97 178.2-398.3-642.4-431.3-827-308-185 123.1 79-202 79-202 202.4-220.5-176-36-176-36-378.4 141.1-642.4-140.5-678-149-34.85-9.06-87.65-44.26-96 26-9.25 70.54-88.98 250.6-440-35-247.7-199.1-393 31-393 31l-39-95c-262 429.1-102-220-102-220 96.75-378.5 1537 64 1537 64s1857 334.3 1980 378c123 44.34 1151-24 1151-24l-60 196c-712.8 509.9-906.4 242-1056 286-149.6 43.95-123.2-61.65-158-70-35.64-9.26-466.8 263.6-537 255" style="fill:#eb8c4e"/>
								<path d="m3527 3773c-70.24-9.26-342.3 255.1-185-97 185.2-413.4-647.9-427.6-827-308-184.6 123 79-203 79-203 202.8-219.7-176-35-176-35-378 140.9-642-140.7-677-149-35.44-9.26-88.24-44.46-97 26-8.84 70.34-87.13 248.5-440-35-260.9-207.5-402 17-402 17l-44-79c-240.3 404.9-95-237-95-237 96.95-378.1 1544 79 1544 79s1857 334.1 1980 378c123.4 44.14 1142-24 1142-24l-59 202c-713.2 510.2-898 235.7-1048 280-149.2 43.74-122.8-61.86-158-71-35.24-8.46-466.4 264.3-537 256" style="fill:#ed9961"/>
								<path d="m3542 3753c-70.84-8.46-337.3 258.3-185-96 184.6-431.7-642.6-431.7-827-308-185.2 122.7 79-203 79-203 202.2-219.9-176-35-176-35-378.6 140.7-642.6-140.9-678-150-35.04-8.46-87.84-43.66-97 27-8.44 70.14-85.28 246.5-440-35-274.1-215.9-412 2-412 2l-49-62c-217.5 383-87-253-87-253 97.15-378.7 1552 93 1552 93s1856 333.9 1980 378c122.8 43.94 1132-23 1132-23l-59 207c-712.6 510.4-888.6 229.5-1038 274-149.8 43.54-123.4-62.06-159-71-34.83-8.66-466 264.1-536 255" style="fill:#efa675"/>
								<path d="m3556 3734c-70.43-8.66-356 249.3-185-97 211.4-426.5-642.2-430.9-827-308-184.8 123.5 79-202 79-202 202.6-220.1-176-35-176-35-378.2 140.5-642.2-141.1-677-150-35.64-8.66-88.45-43.86-97 27-9.04 69.94-84.44 244.4-440-36-288.2-223.3-423-11-423-11l-53-46c-197.9 365.3-79-270-79-270 96.35-378.3 1558 107 1558 107s1857 334.7 1980 379c123.2 43.74 1122-23 1122-23l-57 213c-713 510.5-880.2 223.3-1030 267-149.4 44.34-123-61.26-158-70-35.43-8.86-466.6 263.9-537 255" style="fill:#f1b289"/>
								<path d="m3570 3715c-70.04-8.85-359.8 247-184-97 224-439.9-642.8-431.1-828-308-184.4 123.3 80-202 80-202 202-220.3-176-35-176-35-378.8 140.3-642.8-141.3-678-150-35.25-8.86-88.04-44.06-97 26-8.64 70.74-82.6 243.4-440-35-301.5-231.7-433-26-433-26l-57-29c-176.1 332.3-72-286-72-286 96.55-378.9 1565 121 1565 121s1857 334.5 1980 379c123.6 43.54 1113-22 1113-22l-57 218c-712.4 510.7-870.8 217.1-1020 261-150 44.15-123.6-61.46-159-70-35.04-9.06-466.2 263.8-537 255" style="fill:#f4bf9c"/>
								<path d="m3585 3696c-70.64-9.06-372.5 240.4-185-97 242-435.7-642.4-431.3-827-308-185 123.1 79-202 79-202 202.4-220.5-176-36-176-36-378.4 141.1-642.4-140.5-678-149-34.85-9.06-87.64-44.26-96 26-9.25 70.54-81.75 241.3-440-35-315.7-240.1-444-40-444-40l-61-13c-158.7 312.5-65-303-65-303 96.75-378.5 1573 136 1573 136s1857 334.3 1980 378c123 44.34 1103-20 1103-20l-56 224c-712.8 510-862.4 209.9-1012 254-149.6 43.94-123.2-61.66-158-70-35.64-9.26-466.8 263.5-537 255" style="fill:#f6ccb0"/>
								<path d="m3599 3677c-70.23-9.27-372.1 240.2-185-97 242.4-435.9-642-431.5-827-308-184.6 122.9 79-203 79-203 202.8-219.7-176-35-176-35-378 140.9-642-140.7-677-149-35.45-9.27-88.25-44.46-97 26-8.85 70.34-79.89 239.3-440-35-328.8-248.5-453-54-453-54l-66 3c-150.1 290.6-58-320-58-320 96.96-378.1 1580 151 1580 151s1857 334.1 1980 378c123.4 44.14 1094-20 1094-20l-55 230c-713.2 510.1-854 203.7-1004 248-149.2 43.73-122.8-61.86-158-71-35.23-8.46-466.4 264.3-537 256" style="fill:#f8d9c4"/>
								<path d="m3614 3657c-70.84-8.46-368.4 243.3-185-96 241.8-449.3-642.6-431.7-827-308-185.2 122.7 79-203 79-203 202.2-219.9-176-35-176-35-378.6 140.7-642.6-140.9-678-150-35.05-8.46-87.85-43.66-97 27-8.45 70.14-78.05 237.2-440-35-342-256.9-463-69-463-69l-71 20c-142.7 264.1-50-336-50-336 97.15-378.7 1588 165 1588 165s1856 333.9 1980 378c122.8 43.94 1084-19 1084-19l-55 235c-712.6 510.4-844.6 197.5-994 242-149.8 43.54-123.4-62.06-159-71-34.84-8.66-466 264.1-536 255" style="fill:#fbe6d8"/>
								<path d="m3628 3638c-70.44-8.65-356.2 249.2-185-97 233.4-470.5-642.2-430.9-827-308-184.8 123.5 79-202 79-202 202.6-220.1-176-35-176-35-378.2 140.5-642.2-141.1-677-150-35.64-8.66-88.44-43.87-97 27-9.04 69.93-77.2 235.2-440-36-356.3-264.3-474-82-474-82l-75 36c-140.7 255.3-42-353-42-353 96.36-378.3 1594 179 1594 179s1857 334.7 1980 379c123.2 43.73 1074-19 1074-19l-53 241c-713 510.5-836.2 191.3-986 235-149.4 44.35-123-61.27-158-70-35.44-8.87-466.6 264-537 255" style="fill:#fdf2ec"/>
								<path d="m756.2 2774c-140.9 242.2-35-369-35-369 96.55-378.9 1601 193 1601 193s1857 334.6 1980 379c123.6 43.55 1065-18 1065-18l-53 246c-712.4 510.8-826.8 185.2-976 229-150 44.15-123.6-61.45-159-70-35.04-9.05-466.2 263.8-537 255-70.04-8.85-347.5 253-184-97 244.1-524.6-668.8-413.8-828-308-184.4 123.4 80-202 80-202 202-220.3-176-35-176-35-378.8 140.4-642.8-141.3-678-150-35.25-8.86-88.05-44.06-97 26-8.65 70.75-75.36 234.2-440-35-369.4-272.7-484-97-484-97l-79 53" style="fill:#ffffff"/>
								<path d="m1214 2444s-79.65-127.5 149-273c0 0 15.55-15.06-182 31 0 0-68.65 22.14-86 137 0 0-53.05 47.94-106 110-52.65 61.14 225-5 225-5" style="fill:#000000"/>
								<path d="m2754 2968s194.2-295.3 188-348c-14.65-114.3-16.85-219.9 18-264 35.56-43.86 132-409 132-409s-4.04-13.26 132 405c0 0 128 175.7-92 378 0 0-387.2 317-378 238" style="fill:#cccccc"/>
								<path d="m1434 2149s122.8-78.86-36-422l71 26s-9.05-122.9-44-149l79 35s52.75-88.06 9-141c0 0 184.6-87.86 176-158 0 0 70.15 87.74 26 158-43.85 70.54-123 26.54-114 229l-97-35s61.55 96.54 62 167l-88-26s169.7 291.9 52 308c-65.65 8.34-96 8-96 8" style="fill:#000000"/>
								<path d="m1790 1965s30.75 47.94 0 39c-30.85-8.66-374-171.5-440-277 0 0 378.4 268.3 440 238" style="fill:#cccccc"/>
								<path d="m1904 1877s31.15 47.94 0 39c-30.45-8.66-373.6-171.5-440-277 0 0 378.8 268.3 440 238" style="fill:#cccccc"/>
								<path d="m2050 2044s30.35 48.14 0 39c-31.25-8.46-374.4-171.3-440-277 0 0 378 268.5 440 238" style="fill:#cccccc"/>
								<path d="m1794 1564s0.35 66.14-30 57c-31.25-8.46-427.2-202.1-493-308 0 0 461.8 281.9 523 251" style="fill:#cccccc"/>
								<path d="m1808 1683s12.75 52.74-18 44c-22.05-0.06-312.4-127.7-378-233 0 0 325.2 237.3 396 189" style="fill:#cccccc"/>
								<path d="m1649 1159-110-83s114.6 83.34 154 70c0 0-74.65-123.1-83-180 0 0 114 140.5 176 136 0 0 83.15-4.26 83-123 0 0 61.75 114.3 97 110 0 0 13.15-70.46 0-145 0 0 43.95 83.34 88 66 0 0 70.35 21.74 62-106 0 0-0.45-114.3-9-145 0 0 61.35 290.3 88 295 0 0 87.75 12.94 141-84 0 0-44.45 83.74 8 62 0 0 119.2-17.86 154-93 0 0-74.45 132.3-13 97 0 0 74.95 0.14 88-70 0 0 92.55-233.5 115-251 0 0-84.05 237.5-66 238 0 0-22.45 131.5 35-31 0 0-35.45 153.7 26 145 61.75-8.86 110.2-118.9 203-92 0 0 105.2-62.06 127 699l-1364-515" style="fill:#cccccc"/>
								<path d="m1702 2180s162.8 66.14 603 0c0 0 78.95-4.26 154 93 74.55 96.34 369.4 175.5 440 154l105-71 9-13s136.6-114.5 141-198c4.36-83.66-158.4-611.7-264-788-105.6-175.7-211.2-312.1-422-286 0 0-229.2 44.34-511 0 0 0-321 17.94-352 106-30.65 87.94 123 255 123 255s48.75 92.54 36 251c-13.65 158.3-9.25 466.3-62 497" style="fill:#000000"/>
								<path d="m1944 2158c92.35-202.3-233-919-233-919-22.25-18.06 139-84.55 251-58 120 29.36 563-17 563-17 259.4 171.3 400 660 400 660s114.6 263.7-79 299c-193.6 35.14-902 35-902 35" style="fill:#e6668c"/>
								<path d="m1922 1818c36.2 141 53.62 270.8 22 340 0 0 686.4-70.26 810 159 46.2 86.16 208.6-251.3 204-357 0 0-692.8-158.3-856-35l-180-107" style="fill:#b23359"/>
								<path d="m1970 1639s22.35-79.26-4-123c0 0-17.65-9.06-31-13 0 0 13.35-40.06 79-58 0 0 22.35-48.06 49-52 26.15-4.86 78.95-66.46 123-53 43.95 12.94 167 57 167 57s61.75 35.14 159-4c0 0 25.68 8.36 30 52 5.85 52.04 39.95 92.74 62 115 21.95 21.74 127.6 162.5 114 167-12.85 4.34-748-88-748-88" style="fill:#a6264d"/>
								<path d="m1922 2171s-30.85-246.1 4-338c35.55-92.86 26.75-114.9 18-159-8.85-43.86 39.55-153.9 101-220l132-17s167.4 39.14 269 8c0 0 98.48-14.43 136 150 0 0 52.75 70.34 132 101 79.15 30.94 158.4 488.5 114 577-43.65 87.54-202 135.9-378-36-176-171.3-198 13.54-528-66" style="fill:#ff7380"/>
								<path d="m1922 2171s-30.85-246.1 4-338c35.55-92.86 26.75-114.9 18-159-8.85-43.86 39.55-153.9 101-220l132-17s167.4 39.14 269 8c0 0 98.48-14.43 136 150 0 0 52.75 70.34 132 101 79.15 30.94 158.4 488.5 114 577-43.65 87.54-202 135.9-378-36-176-171.3-198 13.54-528-66z" style="fill:none;stroke-miterlimit:10;stroke-width:11;stroke:#000000"/>
								<path d="m1940 1349s-9.25 21.54-58 26c0 0-246 39.54-338 176 0 0-75.25 61.54-27-66 0 0 114.6-224.5 189-255 0 0 180.8-44.26 234 119" style="fill:#ffffcc"/>
								<path d="m1940 1349s-9.25 21.54-58 26c0 0-246 39.54-338 176 0 0-75.25 61.54-27-66 0 0 114.6-224.5 189-255 0 0 180.8-44.26 234 119z" style="fill:none;stroke-miterlimit:10;stroke-width:5.5;stroke:#000000"/>
								<path d="m2819 2052c7.16 87.2 28.64 182 9 221-70.55 141.4-257.3 82.11-378-36-176-171.3-198 13.54-528-66 0 0-19.25-153.2-10-263 0 0 410.4 126.9 419 65 0 0 17.75 35.54 119 36 101.2-0.46 351.3 12.43 369 43" style="fill:#cc404d"/>
								<path d="m2344 2163s53.15-53.26 14-159c0 0-158.8-175.9-137-330" style="fill:none;stroke-miterlimit:10;stroke-width:22;stroke:#a61a26"/>
								<path d="m1816 1230s-48.05 140.5 49 66c0 0 52.55-22.26 39-40-12.85-17.46-74.45-61.46-88-26" style="fill:#ffffcc"/>
								<path d="m1816 1230s-48.05 140.5 49 66c0 0 52.55-22.26 39-40-12.85-17.46-74.45-61.46-88-26z" style="fill:none;stroke-miterlimit:10;stroke-width:5.5;stroke:#000000"/>
								<path d="m1872 1217s-38.93 112.2 39 52c0 0 48.14-26.59 31-31-49.97-14.42 0.19-42.58-70-21" style="fill:#ffffcc"/>
								<path d="m1872 1217s-38.93 112.2 39 52c0 0 48.14-26.59 31-31-49.97-14.42 0.19-42.58-70-21z" style="fill:none;stroke-miterlimit:10;stroke-width:5.5;stroke:#000000"/>
								<path d="m1925 1217s-39.13 112.2 38 52c0 0 48.43-25.07 32-31-36.97-14.42-0.01-42.58-70-21" style="fill:#ffffcc"/>
								<path d="m1925 1217s-39.13 112.2 38 52c0 0 48.43-25.07 32-31-36.97-14.42-0.01-42.58-70-21z" style="fill:none;stroke-miterlimit:10;stroke-width:5.5;stroke:#000000"/>
								<path d="m1997 1214s-38.53 113 39 53c0 0 48.13-25.51 32-32-32.97-11.42-0.4-41.78-71-21" style="fill:#ffffcc"/>
								<path d="m1997 1214s-38.53 113 39 53c0 0 48.13-25.51 32-32-32.97-11.42-0.4-41.78-71-21z" style="fill:none;stroke-miterlimit:10;stroke-width:5.5;stroke:#000000"/>
								<path d="m2068 1215s-38.25 112.9 39 53c0 0 42.44-17.58 32-32-10.68-13.74-0.12-41.9-71-21" style="fill:#ffffcc"/>
								<path d="m2068 1215s-38.25 112.9 39 53c0 0 42.44-17.58 32-32-10.68-13.74-0.12-41.9-71-21z" style="fill:none;stroke-miterlimit:10;stroke-width:5.5;stroke:#000000"/>
								<path d="m2142 1208s-52.85 136.1 48 66c0 0 53.15-22.26 40-40-13.25-17.46-0.05-52.66-88-26" style="fill:#ffffcc"/>
								<path d="m2142 1208s-52.85 136.1 48 66c0 0 53.15-22.26 40-40-13.25-17.46-0.05-52.66-88-26z" style="fill:none;stroke-miterlimit:10;stroke-width:5.5;stroke:#000000"/>
								<path d="m1830 1397s144.8 30.74 211-4c0 0 65.75-13.66 79-9 13.15 4.14 48 9 48 9" style="fill:none;stroke-miterlimit:10;stroke-width:22;stroke:#a6264d"/>
								<path d="m2204 1300s131.6 149.7 264 101c76.73-27.96 65.55 9.14 74 40 9.15 30.74 11.35 76.94 66 110" style="fill:none;stroke-miterlimit:10;stroke-width:22;stroke:#a6264d"/>
								<path d="m2393 1476s-44.25 118.9-75-22c-30.85-140.7-66.05-180.3-84-211 0 0 0.35-57.26 93-53 0 0 118.6 4.54 123 35 4.35 31.14-13.25 158.7-57 251" style="fill:#ffffcc"/>
								<path d="m2393 1476s-44.25 118.9-75-22c-30.85-140.7-66.05-180.3-84-211 0 0 0.35-57.26 93-53 0 0 118.6 4.54 123 35 4.35 31.14-13.25 158.7-57 251z" style="fill:none;stroke-miterlimit:10;stroke-width:5.5;stroke:#000000"/>
								<path d="m2547 1397s39.35 26.34 66 13" style="fill:none;stroke-miterlimit:10;stroke-width:22;stroke:#a6264d"/>
								<path d="m2618 1577s32.15 54.24 85 63" style="fill:none;stroke-miterlimit:10;stroke-width:22;stroke:#a6264d"/>
								<path d="m1746 1173s198-35.66 246-18c0 0 97.15-0.06 5-22 0 0-141-0.06-229 13 0 0-127.6 61.74-22 27" style="fill:#b2b2b2"/>
								<path d="m1900 2198s193.6-0.26 216-9c0 0 78.75-338.9 39-422 0 0-13.05-31.26-44 30 0 0-202.2 361.1-237 383-35.65 22.14 12.75 17.74 26 18" style="fill:#ffffcc"/>
								<path d="m1900 2198s193.6-0.26 216-9c0 0 78.75-338.9 39-422 0 0-13.05-31.26-44 30 0 0-202.2 361.1-237 383-35.65 22.14 12.75 17.74 26 18z" style="fill:none;stroke-miterlimit:10;stroke-width:5.5;stroke:#000000"/>
								<path d="m1052 2227s97.75-18.26 236-47c0 0 53.15-246.3 88-299 35.55-52.86-4.05-52.86-44-22-39.25 30.74-202 184.7-224 233-22.05 48.54-56 135-56 135" style="fill:#ffffcc"/>
								<path d="m1052 2227s97.75-18.26 236-47c0 0 53.15-246.3 88-299 35.55-52.86-4.05-52.86-44-22-39.25 30.74-202 184.7-224 233-22.05 48.54-56 135-56 135z" style="fill:none;stroke-miterlimit:10;stroke-width:5.5;stroke:#000000"/>
								<path d="m1292 2178s64.12-17.28 75-42c11.31-24-13-60-13-60s-11-36.62-24-13c-13.45 23.96-45.04 108.2-38 115" style="fill:#ffffcc"/>
								<path d="m1292 2178s64.12-17.28 75-42c11.31-24-13-60-13-60s-11-36.62-24-13c-13.45 23.96-45.04 108.2-38 115z" style="fill:none;stroke-miterlimit:10;stroke-width:5.5;stroke:#000000"/>
								<path d="m1293 2180s39.35-57.06 79-57c39.55-0.06 43.75 4.48 75-2 50.35-11.26 45.95 10.74 119-2 28.59-5.74 56.75 3.94 88-9 30.35-13.46 65.55-4.66 79 17 12.95 22.34 66 69 66 69s-141-20.26-172-29c0 0-246.2-13.26-334 13" style="fill:#000000"/>
								<path d="m1783 2178s-70.6-38.56-75-65c-4.4-26.36 58-67 58-67s30-50.66 37-24c6.2 26.14-10.85 151.5-20 156" style="fill:#ffffcc"/>
								<path d="m1783 2178s-70.6-38.56-75-65c-4.4-26.36 58-67 58-67s30-50.66 37-24c6.2 26.14-10.85 151.5-20 156z" style="fill:none;stroke-miterlimit:10;stroke-width:5.5;stroke:#000000"/>
								<path d="m1371 2118s77.09-123.2 79 0c0 0 6.61 13.93-13 14-66.58 1-49.85 46.13-66-14" style="fill:#ffffcc"/>
								<path d="m1371 2118s77.09-123.2 79 0c0 0 6.61 13.93-13 14-66.58 1-49.85 46.13-66-14z" style="fill:none;stroke-miterlimit:10;stroke-width:5.5;stroke:#000000"/>
								<path d="m1450 2115s87.11-123 80 1c0 0 0.18 3.77-19 5-52.32 5.01-48.52 54.71-61-6" style="fill:#ffffcc"/>
								<path d="m1450 2115s87.11-123 80 1c0 0 0.18 3.77-19 5-52.32 5.01-48.52 54.71-61-6z" style="fill:none;stroke-miterlimit:10;stroke-width:5.5;stroke:#000000"/>
								<path d="m1529 2115s87.88-116.9 81-11c0 0 0.82 13.99-17 17-43.18 8.07-45.5 43.8-64-6" style="fill:#ffffcc"/>
								<path d="m1529 2115s87.88-116.9 81-11c0 0 0.82 13.99-17 17-43.18 8.07-45.5 43.8-64-6z" style="fill:none;stroke-miterlimit:10;stroke-width:5.5;stroke:#000000"/>
								<path d="m1605 2114s86.85-127 91-19c0 0 17.77 14.71-1 17-64.44 8.29-55.66 57.28-90 2" style="fill:#ffffcc"/>
								<path d="m1605 2114s86.85-127 91-19c0 0 17.77 14.71-1 17-64.44 8.29-55.66 57.28-90 2z" style="fill:none;stroke-miterlimit:10;stroke-width:5.5;stroke:#000000"/>
								<path d="m1207 2075-84 17c-28.8 55.14-52 123-52 123s69.95-11.21 207-42c0 0 10.09-36.51 26-100l-97 2" style="fill:#e6e6b2"/>
								<path d="m1923 2127c-18.54 27.14-33.03 46.48-40 51-33.32 20.66 12.25 16.52 25 17 0 0 182-0.48 203-9 0 0 5.43-24.43 13-62 0 0-111 22.38-201 3" style="fill:#e6e6b2"/>
								<path d="m2512 3646c305.4-43.34 586.1 348.7 605 455 19.8 106.7-92 237-92 237 15 34.23-38.24 189.1-96 291-58.4 101.4-233.3 90.68-426 101-174.5 10.07-377.8-246.4-392-266-14.81-19.17 52.95-440.3 67-503 14.99-63.1-14-354-14-354 376.6 100.6 43.51 82.78 348 39" style="fill:#cc7326"/>
								<path d="m2119 4457c-14.54-18.95 51.99-432.4 66-494 14.5-61.93-14-347-14-347 359.4 97.63 42.76 80.73 342 38 299.5-42.8 575.1 342.1 594 447 19.15 104.2-90 233-90 233 14.11 32.77-38.16 184.8-95 285-57.21 99.42-228.9 88.89-418 99-171.4 9.93-371-241.9-385-261" style="fill:#eb8f52"/>
								<path d="m2127 4450c-14.27-18.72 51.03-424.5 65-485 14.02-60.77-14-341-14-341 345.5 101.2 42.01 79.68 336 38 293.7-42.27 564.2 335.5 583 438 18.5 102.7-89 229-89 229 14.23 32.32-37.08 181.6-93 280-56.02 97.45-224.6 87.13-410 97-168.4 9.78-364.3-237.4-378-256" style="fill:#f0ab7d"/>
								<path d="m2135 4443c-13.99-18.5 50.07-416.6 64-476 13.53-59.6-14-334-14-334 323.9 99.29 41.25 77.64 330 36 287.8-40.73 553.2 329.9 572 431 17.86 100.3-87 224-87 224 13.34 31.86-37 178.3-92 274-54.82 96.49-220.2 86.36-403 96-164.4 9.64-356.5-232.9-370-251" style="fill:#f5c7a8"/>
								<path d="m2143 4436c-13.72-18.27 49.11-408.7 63-467 13.04-58.43-14-328-14-328 306.7 98.41 40.5 76.59 323 36 283-40.2 543.3 323.3 561 422 18.21 98.81-85 220-85 220 13.45 31.41-35.92 175-90 269-53.63 94.52-215.8 84.59-395 95-161.3 8.5-349.8-229.4-363-247" style="fill:#fae3d4"/>
								<path d="m2516 3685c277.2-39.65 532.4 316.8 550 414 17.56 96.35-84 215-84 215 13.56 30.95-34.85 171.8-88 264-52.45 92.55-211.4 82.8-387 93-158.2 8.35-343-224.8-356-242-13.45-18.05 48.15-400.8 61-458 13.55-57.25-13-321-13-321 280.6 94.35 39.75 74.55 317 35" style="fill:#ffffff"/>
								<path d="m3026 4059s-305.4-83.65-433-66c0 0-173.8 72.55-271-167 0 0-39.25-79.45-61-101-22.25-22.45 765 334 765 334" style="fill:#cccccc"/>
								<path d="m3068 4083s-318.8-134-429-130c0 0-180.2 50.95-273-110 0 0-92.05-100.8-127-118 0 0-4.65-18.05 66 26l114-57s163-105.8 269 70c0 0 43.55 123.4 44 145-0.45 22.35 232.8 83.95 250 88 17.96 4.75 90.56 50.95 86 86" style="fill:#000000"/>
								<path d="m2547 3688c-75.84 0.1-168 42.61-168 111 0.05 69.08 92.16 138 168 138 75.36-0.01 136.7-55.72 137-124-0.34-69.19-61.64-124.9-137-125" style="fill:#99cc33"/>
								<path d="m2507 3872c-53.41-8.32-109.4-24.86-109-22 17.34 50.33 87.32 86.99 149 87 47.01-0.01 88.68-21.77 113-55 0 0-58.21 3.75-153-10" style="fill:#669900"/>
								<path d="m2639 3874s-48.25 35.35-48 11c0 0 39.35-48.25 48-11" style="fill:#ffffff"/>
								<path d="m2529 3785c-27.34-0.23-49.62 22.05-50 50 0.38 27.04 22.66 49.32 50 49 27.65 0.32 49.94-21.96 50-49-0.06-27.95-22.35-50.23-50-50" style="fill:#000000"/>
								<path d="m1385 3931s-35.05 233.6-9 282c0 0 119.2 110 115 150 0 0-4.65 197.6-18 206-13.05 9.15-96.65 75.15-163 5 0 0-114-198.2-105-269v-22s-83.85 4.75-101-17c0 0-13.65-57.45-27-62 0 0-30.65-26.25-9-57 0 0-21.65-26.45-17-70l83-44s22.35-158.8 141-216c53.35-25.67 88.15 48.35 110 114" style="fill:#cc7326"/>
								<path d="m1374 3952s-31.53 209.5-8 253c0 0 107.2 99.03 103 135 0 0-3.77 177.9-16 186-11.53 7.71-86.77 67.11-146 4 0 0-103.1-178.4-95-242v-20s-75.45 4.35-91-15c0 0-12.17-51.93-24-56 0 0-27.77-23.65-8-51 0 0-19.77-24.13-16-64l75-39s20.23-142.9 127-194c48.02-23.41 79.35 43.19 99 103" style="fill:#ffffff"/>
								<path d="m1468 4558c-11.79 9.92-94.18 73.39-159 5 0 0-111.1-193.3-102-262v-21s-82 3.9-99-18c0 0-13.03-55.32-26-60 0 0-29.93-25.35-8-55 0 0-21.93-26.12-18-69l82-43s21.32-154.4 137-210c52-25.1 85.95 47.06 107 111 0 0-33.92 227.8-8 275 0 0 115.6 107.2 111 146 0 0-3.93 192.9-17 201" style="fill:#ec965d"/>
								<path d="m1463 4548c-10.53 9.69-91.71 70.63-154 4 0 0-109.1-188.4-101-255v-21s-79.15 4.05-96-17c0 0-12.41-54.19-25-58 0 0-29.21-25.45-8-55 0 0-21.21-24.79-17-67l79-41s21.29-150.9 134-205c50.68-24.54 83.75 45.77 105 108 0 0-33.79 222-9 268 0 0 113.2 104.5 109 142 0 0-4.21 188.2-17 197" style="fill:#f2b992"/>
								<path d="m1458 4537c-9.27 10.46-89.24 68.87-150 4 0 0-106.1-183.4-98-249v-20s-77.3 4.2-94-16c0 0-11.79-53.06-24-57 0 0-28.49-24.55-8-53 0 0-20.49-24.46-16-65l77-41s20.26-146.4 130-199c49.35-23.98 81.55 44.48 102 106 0 0-32.66 215.2-8 260 0 0 109.6 101.8 106 138 0 0-4.49 183.5-17 192" style="fill:#f9dcc9"/>
								<path d="m1374 3953s-31.53 208.5-8 252c0 0 107.2 99.03 103 135 0 0-3.77 177.9-16 186-8.01 11.23-86.77 67.11-146 4 0 0-103.1-178.4-95-242v-20s-75.45 4.35-91-15c0 0-12.17-51.93-24-56 0 0-27.77-23.65-8-51 0 0-19.77-24.13-16-64l75-39s20.23-142.9 127-194c48.02-23.41 79.35 44.29 99 104" style="fill:#ffffff"/>
								<path d="m1340 4022s-237.6 111.8-247 121c0 0 99.65-90.65 108-91 9.25 0.35 139-30 139-30" style="fill:#cccccc"/>
								<path d="m1152 4090s202.4-39.85 202-88c0.35-32.28-2.32-179.9-61-163-92.65 26.35-53.05 184.8-141 251" style="fill:#000000"/>
								<path d="m1244 4048s99.11-16.26 110-46c6.95-17.85 14.24-109.2-46-121-49.92-10.27-74.45 102.2-64 167" style="fill:#99cc33"/>
								<path d="m2190 3580c-5.17 19.07 9.25 17.63 29 24 21.95 6.15 156.2 47.95 165 77 8.75 28.15 154-20 154-20 19.75-9.05 68-38 68-38 52.95-12.85 126-17 126-17 25.95-11.25 63-42 63-42 161-112.2 297-33 297-33 220.4 72.55 154 262 154 262-32.64 98.75 3 136 3 136 1.76 41.95 81-28 81-28 28.56-46.65 37-102 37-102 88.36-122.8 51 73 51 73 2.16 10.95-28.64 50.55-29 64 0.36 12.95-19 50-19 50-33.44 37.75-7 115-7 115 19.76 151.6-4 132-4 132-13.64 19.55-115-90-115-90-24.04-37.85-90-55-90-55-30.84-20.25-68-5-68-5-28.84 4.55-90-72-90-72 30.36 1.75 56.76-46.65 83-49 26.56-2.05 46.36 26.55 64 33 17.56 6.75 48-57 48-57 4.76-28.65-57-81-57-81-4.24-51.05-22-33-22-33-32.84 6.15-46.04-35.65-57-86-11.04-50.85-57-55-57-55-17.84-81.65-31-49-31-49-2.25 61.95-68-2-68-2-13.45-21.85-64 2-64 2-74.85 22.35-48 44-48 44 19.35 24.55 143 0 143 0 23.75 17.95-64 62-64 62-6.85 19.75 4 68 4 68 13.35 35.35 88 97 88 97 103.6 13.15 73 31 73 31-68.44 56.95-132-27-132-27-24.45-67.85-216-233-216-233-52.65-37.25-24.05 37.55-68 0-44.05-37.25-271 62-271 62-126.8 12.88-156.9-160.3-196-126 0 0 59.89-93.69 42-32" style="fill:#000000"/>
								<path d="m4333 5410s-281.4-88.25-312-295c0 0-26.64-250.8 198-444 0 0 4.16-70.85 26-106 0 0-17.44-52.85 189 31l300 92s69.96 26.55 127 123c57.36 97.15 224.6 304 185 581 0 0 13.16 123.4-53 128 0 0-92.24 17.35-171-66 0 0-75.24-35.45-102-31l-387-13" style="fill:#000000"/>
								<path d="m4934 5421s23.09 97.87-30 45c0 0-77.59-63.29-160-63 0 0-159.6-24.49-208-170 0 0-43.56-294.9 44-358 0 0 52.8-82.13 130-10 77.69 73.07 248.2 405.6 224 556" style="fill:#000000"/>
								<path d="m4930 5417s22.87 95.89-29 44c0 0-76.44-62.16-157-62 0 0-157-23.92-205-166 0 0-42.34-290.4 43-352 0 0 52.47-80.91 129-10 75.55 71.65 242.6 398.4 219 546" style="fill:#333333"/>
								<path d="m4926 5413s22.64 93.9-29 43c0 0-74.29-61.04-154-61 0 0-153.5-23.35-200-163 0 0-42.11-284.8 42-345 0 0 51.14-79.7 126-10 74.4 70.22 238.1 391.2 215 536" style="fill:#666666"/>
								<path d="m4922 5409s22.42 91.92-28 42c0 0-73.13-59.91-151-60 0 0-150.9-22.79-197-160 0 0-40.89-279.2 41-339 0 0 50.82-77.48 124-9 73.26 68.8 233.5 384 211 526" style="fill:#999999"/>
								<path d="m4918 5405s22.2 89.93-27 41c0 0-71.99-58.78-148-59 0 0-148.4-22.22-193-157 0 0-40.66-273.6 40-332 0 0 49.49-76.27 121-9 72.11 67.38 229 376.8 207 516" style="fill:#cccccc"/>
								<path d="m4913 5401s22.96 87.95-25 40c0 0-70.84-57.65-146-58 0 0-144.8-21.65-189-154 0 0-39.44-268 40-325 0 0 48.16-75.05 119-9 69.96 65.95 223.4 369.6 201 506" style="fill:#ffffff"/>
								<path d="m2586 3166s-224 211-312 220c0 0-378.4 43.75-541-154 0 0 193.4 224.2 497 163 0 0-237.6 47.95-374 13 0 0-184.8-0.25-290-154l-31-53s43.75 162.8 246 229c0 0 251 52.55 370 0 0 0-237.8 74.55-348 53 0 0-334.2 25.95-475-264 0 0 43.95 158 207 237 0 0 149.4 96.95 374 66 0 0 158.2-35.05 215-61 57.55-26.85 44.35 3.95-48 57 0 0-61.65 109.8-216 105 0 0-470.4-39.25-585-171 0 0 149.8 123 264 154 0 0 246.6 87.75 339 79 0 0 272.8-11.05 356 33 0 0-122.8-55.05-88-90 35.55-35.45 110.4-119 110-132 0.35-13.45 266.6-256.6 306-305l24-25" style="fill:#992600"/>
								<path d="m4109 1032s-170.8 401.2-308 506c0 0 285.8-176.2 324-374 0 0 0.25-110.2-16-132" style="fill:#cccccc"/>
								<path d="m4626 949.2s-291.8 605.2-495 869c0 0 478.2-412.2 533-704l6-60-33 27s-5.75-98.75-11-132" style="fill:#cccccc"/>
								<path d="m5247 1483s-687.2 654.2-704 682c0 0 665.8-726.2 699-809 0 0-22.25 99.25 5 127" style="fill:#cccccc"/>
								<path d="m3174 1004s214.2 572.2 423 325c0 0 165.2-110.2 160-143 0 0-44.25 71.25-242 66 0 0-209.2 32.75-341-248" style="fill:#cccccc"/>
								<path d="m5269 2407s-494.8 313.2-577 330c-130.1 25.72 544.2-319.2 599-435 0 0 22.25 27.75-22 105" style="fill:#cccccc"/>
								<path d="m3612 1234s224 22.14 299 97l48-40 194 423 39-57s158.8 162.3 150 250c-8.84 88.34 141-66 141-66s-9.04 127.9 70 53c0 0-26.24 171.7 66 84 0 0-115.8 331.5 132 48 61.76-70.26 13 5 13 5s-285.6 527.5-48 369c0 0 21.96 250.9 9 299-13.44 48.74-35.44 295.2-88 352-53.04 57.55 4.16 75.15 66 18 0 0-123.4 264 22 132 0 0-39.84 167.2-88 198 0 0-61.84 189.2 105 70 0 0-48.04 136.8-83 172 0 0-127.8 303.6-49 251l49-40s-75.04 154.2-5 106c70.76-48.65 71-44 71-44s-233.4 365-9 171c0 0-89.79 153.4-128 229 0 0-206.4 224.6-48 154l53-17s-97.04 109.6-185 127c-88.04 17.75 26.36 88.15 97 66 70.16-21.85 242-105 242-105s140.6-207.2 185-212c0 0-220.4 83.95-154-4 0 0 158-154 79-150 0 0-66.24-78.85-13-176 0 0-203.5 202.6-40-79l75-180s-268.6 272.6-145 31c0 0 188.8-260 211-264 21.76-4.85 70-102 70-102l-48 22 57-96s-123.2 131.6-57-14l61-158s-224 242-74-84c0 0-180.8 57.55-84-132 0 0-17.64-175.7-13-233 4.16-57.06 17.36-369.5-31-457-48.44-88.46 65.96-299.7 88-344 21.96-43.66 61.56-162.5-35-61-97.04 100.9-48.64 39.34-27-57 22.36-97.26 88.36-268.9 80-330 0 0-13.64-13.66-49 26 0 0-162.6 250.7-145 92 0 0-13.24-87.66-48-184 0 0-35.64-119.3-36-22 0 0-34.84 184.3-66 101-30.44-83.86-70.04-149.9-101-176-30.64-26.66-87.84 224.1-101 110 0 0-132 136.1-185-44l-127-181s-4.84 136.7-18 71c0 0-330-66.26-444-18" style="fill:#000000"/>
								<path d="m3233 5159s-127.4 87.95-171 84c-44.44-4.85 303.2 96.35 756-207 0 0 53.16-31.05 93-27 0 0 34.96-26.05 4-66 0 0-96.64-105.2 27-228 0 0 202-75.25 140 22 0 0 119.2-44.45 146-88 25.96-44.45 13 0 13 0s-70.64 78.75-137 136c0 0-56.84 21.95-88 114-30.44 92.75-56.84 202.8-8 238 0 0-44.44-48.45-36-4 9.16 43.55 48.76 83.15 66 88 17.96 3.95 198.4 177.8 273 182 0 0-101-15.25-134-4-33.04 10.75-325.6 136.2-392 149 0 0-184.4 72.95-52 51 0 0 393.4-41.85 594-187 0 0-79.64 92.35-282 169 0 0-244.2 139-631 84 0 0-196.2-35.25-282-55 0 0-28.64 6.55-35 11-6.84 4.35-136.6 103.4-440 26 0 0-187.2-50.25-282-103 0 0-167-13.25-207-48 0 0-204.2-161-226-170-22.25-8.65-147.6-92.25-156-97 0 0 270.2 72.95 297 99 25.95 26.75 217.4 55.35 244 40 26.15-15.45 118.6-8.85 13-15 0 0 831.6-163.2 840-185 9.16-22.25 53-9 53-9" style="fill:#000000"/>
								<path d="m4019 5260s-112.6 81.55-135 82c-21.64-0.45-158 111.8-204 107-46.44-4.05-180.6 106-482 16 0 0-6.64 21.75 33 31 0 0 70.36 23.75 75 30 0 0 222 46.55 301 7 0 0 101.4-28.65 170-97 0 0 122.8-35.05 158-24 0 0 96.76-24.25 101-44 0 0 63.96-33.05 44-62 0 0 4.56-17.25-61-46" style="fill:#cc7326"/>
								<path d="m3881 5283c9.26-6.6 20.46-7.68 27-17 2.7-3.04-0.48-6.62-4-8-11.42-3.17-23.04 3.1-36-3-4.02-2.65-11.08-0.65-17 1-18.12 4.84-38.24 5.12-57-2-21.68 11.97-47.63 5.55-71 17-0.16-0.15-2.61-3.95-3-4-33.93 12.94-75.1 9.83-102 35-26.55 4.48-52.47 9.56-79 17-20.18 5.64-35.68 16.52-53 26-15.64 7.46-31.67 13.2-49 17-20.04 5.27-40.18 4.04-61 10-1.03 0.03-3.14-3.75-4-3-3.61 0.73-6.79 7.14-9 7-18.17-6.18-34.54 4.51-53 1-12.8 13.21-31.8 10.52-49 15-32.41 9.71-67.11-4.26-100 7 44.8 20.01 96.36 6.46 141 29 25.65 13.27 54.93 1.14 83 10 5.56 1.09 13.16 3.31 18-4 1.04 1.44 3.04 4.06 4 4 26.63-12.97 52.09-26.98 79-39 4.14-1.32 10 1.23 13-1 16.49-13.36 37.86-12.23 53-26 18.84 5.87 38.56 1.69 58 9 0.43-0.15 3-3.9 3-4 12.8 8.57 25.5 5.59 35 2 4.03-1.02 11.32-3.73 15-5 12.06-2.59 21.48-7.86 34-10 1.7-0.07 3.74 3.66 5 3 11.88-4.46 23.34-3.85 31-17 1.05 1.84 2.86 4.45 4 4 11.06-3.56 18.2-11.87 30-15 5.64-0.68 12.38-7.57 19-10 26.02-7.55 46.3-24.37 70-34 8.78-3.62 18.42-6.2 25-12" style="fill:#cc7326"/>
								<path d="m3038 5440c-27.29 18.86-53.34 31.02-80 51-2.19 1.13-6.15-0.74-8 1-11.45 6.3-21.22 12.69-32 20-5.95 4.55-14.98 4.43-21 7-27.55 14.48-56.47 20.62-84 34 7.45 6.77 19.79 4.09 26 13 2.5-3.13 5.11-6.25 9-4 18.45 9.79 38.8 11.47 57 10 18.98-0.53 37.91-3.88 57-7 3.8-0.39 6-6.14 10-7 24.05-7.5 50.34-1.73 74-11 17.14-6.87 34.41-15.92 48-30 2.82-2.8-0.76-6.12-4-8 4.43 0.95 7.43-1.32 9-5 0.58-2.39 0.58-5.71 0-8-1.58-3.77-4.65-4.88-9-5-15.24-2.54 4.25 12.65-3 8-14.45-9.23-6.24-24.7-14-39-3.52 2.48-6.05 4.88-5 9 2.73-5.59-3.89-8.78-6-12-3.97-8.23-13.86-23.8-24-17" style="fill:#cc7326"/>
								<path d="m2681 5359c-34.77 8.79-68.32 7.52-101 22-1.23-0.14-3.68-3.95-4-4-15.41 6.88-25.51 17.5-37 29-10.39 9.78-28.62 5.52-43 11-3.2 1.24-5.44 6.88-9 7-13.16 2.03-23.36 12.47-35 19 25.85 8.5 52.37 8.15 79 12 1.69 0.58 3.29-2.95 5-3 1.25 0.05 2.68 2.48 4 4 2.3-3.13 5.62-6.71 8-4 6.47 6.02 12.59 3.93 19 3 1.11 0.38 2.49-2.95 4-3 1.45 0.05 2.89 3.46 4 3 1.85 0.46 3.29-2.95 5-3 1.25 0.05 2.68 2.48 4 4 7.76-8.65 17.5-2.56 27-5 10.96-2.02 13.89-14.65 26-18 51.57-14.27 97.08-37.87 145-61 3.45-1.44 5.76-4.17 5-8 2.49-0.45 5.93 0.52 8-1 11.66-7.98 23.11-14.01 31-26 2.15-3.82-1.47-8.3-4-8-48.75 11.22-92.82 17.91-141 30" style="fill:#cc7326"/>
								<path d="m2528 4873c-17.04 13.13-23.47 35.47-36 55-2.23 3.92 0.79 7.38 4 8 6.43 2.1 12.4-3.15 17-5 19.1-9.86 35.98-23.52 58-25 21.84-24.62 68.7-28.86 69-66-0.21-9.5-15.92 0.6-21-9-26.61 11.18-52.89 10.05-79 26-6.86 4.38-3.23 9.36-12 16" style="fill:#cc7326"/>
								<path d="m2226 5451c1.04 0.05 78.38-2.51 78-4-0.3-3.16-85.34-14.7-89-13-2.14 1.01-84.78-25.72-86-24 2.7 1.23 93.63 41.07 97 41" style="fill:#cc7326"/>
								<path d="m2395 5344s-162.8-20.05-211-33c-48.65-13.45-253.2-97.05-286-119 0 0-147.6-59.45-335-279 0 0 83.95 36.95 108 68 0 0 149.8 138.4 148 110 0 0 133.8 94.35 127 70 0 0 268.6 123.4 247 88 0 0 237.2 50.75 226 29 0 0 207-48.65 176-51 0 0-63.65-13.05 7-53 0 0-37.65-48.05-97-4-59.45 43.95-26.45 19.75-81 9 0 0-29.05-9.05-80 35 0 0-61.25 50.55-158 11 0 0-336.6-138.6-359-145 0 0-39.25-31.05-66-71 0 0-63.45-48.05-96-63 0 0-141.2-128-154-143 0 0-37.85-57.65-47-62 0 0 70.75 41.75 93 64 0 0 153.8 109.8 213 119 0 0 48.55 32.55 57 48 0 0 158.8 101.2 205 101 0 0 101.2-57.05 128 20 0 0 63.35 19.75 125 7 0 0 35.15 28.15 26 52 0 0 17.95 20.15 29-22 0 0 37.35-39.25 90-17 0 0 44.15 1.95 22-24 0 0-48.25-42.25-178-44 0 0-136.4-7.05-317-91 0 0-327.6-114-429-228 0 0-70.25-97.25-130-110 0 0-63.45-9.25-129-91 0 0 107.4 64.15 206 64 0 0 44.35 26.55 3-13 0 0-40.05-83.65-22-143 0 0-7.05-57.25-16-75 0 0-85.65-140.6-86-167 0.35-26.45 13.55-134.2 18-141 4.35-6.45-11.05 17.75 31-9 41.55-26.05 72.35-43.65 81-74 8.95-31.25-21.85 58.95-24 79-2.25 19.55-48.45 98.75-40 125 0 0 11.35-10.85 20-26 0 0-6.45 6.35 0 46 0 0 8.95 57.15 24 92 15.75 35.55 37.75 77.35 42 86 4.55 8.95 4.55 72.75 20 44l37-28s-30.45 28.15-6 52c0 0-11.25 61.95 9 91 0 0 76.55 91.95 94 103 17.75 10.95 2 7 2 7s66.35 45.75 3 28c0 0-44.45-17.45-77-17 0 0-84.05-22.45-40 24 43.95 45.95 154 105.4 196 103l9-17 123 26-13-9s-2.65 2.35 44 7c45.75 4.15 109.6-11.25 125 9 15.35 19.35 52.75 30.35 48 15-4.05-15.45-6-37-6-37s54.75 63.35 48 39c-6.45-24.05-96.65-81.25-112-149l114 90 40 33s39.55-24.45 42-7c1.95 17.75 52.55 81.55 66 79 12.95-1.85 34.95 28.95 33 0-2.45-28.25 81-88 81-88s35.35 20.15 51 5c15.15-15.65 61 218 61 218l275 116 480 38-187 74-671 126" style="fill:#000000"/>
								<path d="m2595 3155s-164.8 184.6-257 213c0 0-147.6 74.95-418-11" style="fill:none;stroke-linecap:round;stroke-miterlimit:10;stroke-width:22;stroke:#4d0000"/>
								<path d="m2303 3384s-277.6 87.55-447 41c0 0-202.4-21.65-295-173" style="fill:none;stroke-linecap:round;stroke-miterlimit:10;stroke-width:22;stroke:#4d0000"/>
								<path d="m2263 3397s-187 78.95-350 103c0 0-182.4 28.75-365-50 0 0-134.2-66.45-194-179" style="fill:none;stroke-linecap:round;stroke-miterlimit:10;stroke-width:22;stroke:#4d0000"/>
								<path d="m2274 3392s-169.4 121.4-180 137c0 0-77.45 120.8-220 125 0 0-235.8-8.65-425-97" style="fill:none;stroke-linecap:round;stroke-miterlimit:10;stroke-width:22;stroke:#4d0000"/>
								<path d="m2260 3491c16.56-15.82 313-334 313-334 387.4-402.7 79-26 79-26-83.25 52.35-184 259-184 259-13.65 30.95 154-79 154-79 43.55-8.85 193-220 193-220-74.65 26.35-22-53-22-53 30.95-21.85 255-193 255-193 39.96-44.46 84-62 84-62 154 57.14 84-88 84-88 25.96-74.86 88 53 88 53 122.8 184.6-58 158-58 158-329.6-30.66-404 145-404 145-26.85 26.75 70 0 70 0 92.36-21.65-79 137-79 137 26.15-0.25 127-75 127-75 114.8-101.2 137-79 137-79 197.8 96.55 312 13 312 13 22.16-17.65-39.44-92.45-22-150 17.76-56.86 71-193 71-193-26.84-17.86-22-137-22-137 184.4-254.9 79-233 79-233-171.8 4.54-9-79-9-79 35.16-22.06 132-101 132-101-30.84 12.94-48-44-48-44 52.36-44.26 22-97 22-97-66.44-13.26-80-57-80-57 75.16-88.26-35-93-35-93 39.76-48.06-13-180-13-180-52.84-0.06-123-62-123-62 26.16-52.46-88-114-88-114-92.64-17.66-62-92-62-92-87.84-66.46-114-242-114-242-9.04-114.9-35.44-150.1 22-128 56.96 21.94 48 158 48 158-52.64 171.9 418 348 418 348 44.16 17.54 53 75 53 75 21.96-4.66 119-88 119-88 83.36-123.5 88-22 88-22 12.96 39.34-5 105-5 105 66.36 237.9-88 308-88 308-109.6 369.9 44 278 44 278 31.16-62.06 150-119 150-119l40 26c-18.04 52.94 74 119 74 119 31.16-70.46 97 18 97 18 39.76 267.9 176 110 176 110 44.16-13.66 57 61 57 61 39.96 114.5 0 264 0 264 39.96 4.54 146-61 146-61 30.36 39.14-70.84 223.9-27 198 44.16-26.86 93-44 93-44 8.36 21.54-102 158-102 158-48.04 30.75-105 255-105 255 78.96-39.45-31 128-31 128-0.04 34.95 66 158 66 158-8.84 74.95 0 71 0 71 30.76-13.65 118.8-31.25 44 39-74.84 70.55 9 123 9 123 48.16 31.15-101 27-101 27-57.64 48.15-53 92-53 92 87.76-21.85-70.64 136.6-97 176-26.44 39.75 79 97 79 97 145.4 39.55 18 75 18 75-215.8-4.65-97 114-97 114 65.96-4.25 48 22 48 22-56.84 13.35-162 84-162 84-44.44 39.35-5 31-5 31 185-13.65-132 110-132 110 88.16-0.45-110 114-110 114-21.84 17.55-57 101-57 101-66.04 57.35-119 132-119 132-4.24 48.55-57 101-57 101-127.6 150-189 146-189 146-163 39.15-220 30-220 30l-581-48c-290.4-140.8-205-372-205-372 70.75-92.25 172-50 172-50 50.55 67.75 178 44 178 44 224.6-35.65 196 4 196 4-26.44 50.55-204.6 118.8-207 125-2.05 6.95-99 44-99 44-32.85 13.55-81 115-81 115-35.45 37.15 138-27 138-27-12.85-10.65 69-55 69-55 191 11.35 308-107 308-107 118.4-183 121-93 121-93 30.36 103.6-99 337-99 337 3.96 21.75 94-51 94-51 15.56 22.15 24-42 24-42 2.56-26.05 44-114 44-114 31.16-143 71-62 71-62l50-103c15.76-28.65-50-112-50-112-2.44-31.05 6.36-28.85-55-112-61.84-84.05-24-132-24-132-15.84-73.05 81-69 81-69 28.56-23.85 66-24 66-24 19.76-21.85 46-15 46-15 17.76 41.55 86 20 86 20 15.36 25.95 106 30 106 30 10.56 28.95 14.96 46.55 52 53 37.76 6.75-233 480-233 480 70.56 8.55-20 145-20 145-23.84 72.55 101.6-88.05 126-103 23.96-15.85 34.96-40.05 17-38-17.24 2.35-37.04-21.85-22-24 15.76-2.25 158.8-167.2 196-279 37.56-112.6 103.6-156.6 172-223 67.96-65.65 59-332 59-332-4.24-96.65 62-213 62-213 21.76-42.05-24-242-24-242-22.44-24.45-7-33-7-33 10.96-13.45 86-159 86-159-20.04 2.55 20-37 20-37 56.76-66.05-14-33-14-33-65.64 17.55 11-90 11-90 13.56-20.05-85 31-85 31-101.6 6.15 26-73 26-73 94.56-79.25-31-31-31-31-50.44 19.95-15-55-15-55 34.96-17.45 224-94 224-94 4.56-42.26-28-97-28-97 3.96-44.26-20-82-20-82-13.44-89.86-20-99-20-99-46.24-1.86-128-154-128-154-19.44-28.26-132-160-132-160-21.64-77.26-220 2-220 2-72.24-37.46-50 0-50 0-4.64 24.14 48 90 48 90 77.16 28.74 49 148 49 148 43.56 14.94-79.64 45.74-77 59 1.76 13.14 66 29 66 29 87.56 21.54 39 48 39 48-6.44 43.94 27 106 27 106 127.2 8.34 0 187 0 187-119.2 83.15-130 147-130 147 138.4 90.15 48.16 226.6 50 266 2.56 39.75 16 277 16 277-22.24 68.55-55 218-55 218 23.96 57.35 105 196 105 196 31.16 46.15 128 98.95 104 132-24.44 32.95-110 13-110 13-86.04 15.55-79-42-79-42-18.04-10.65-27-66-27-66-7.77-86.91-105-156-105-156-123.6-68.05-22-112-22-112 65.56-72.65-42-75-42-75-121.2 19.95-31-92-31-92 118.8-141 86-172 86-172-112.4-10.85 26-112 26-112s-8.64 21.95-6 2c1.76-19.65 34.76-65.85 44-88 8.36-21.85-36-24-36-24 6.96-105.6-162-59-162-59s-0.44-0.45-18-3c-17.64-1.85-140.8 6.95-205 31-63.44 24.35-138 24-138 24s-44.24-19.45-128-17c-83.45 1.95-171-29-171-29-48.85 4.55 45.75 52.95 48 51 2.15-2.45 63.75 59.15-24 53-240-18.43-359 94-359 94-21.85 15.55-50 46-50 46-110.4 22.35 15-136 15-136 13.15-15.45-2-26-2-26-9.05 17.15-95 77-95 77-30.77 10.25-45.77 24.93-71 52" style="fill:#000000"/>
								<path d="m1997 3619s127.4-61.65 156-92c28.55-31.25 183-157 183-157s-59.85 22.35-88 42c-29.05 19.95-148 110-148 110s-41.65 66.15-103 97" style="fill:#4d0000"/>
								<path d="m1359 3962c3.36 1.75-2.41 31.58-5 38-10.89 29.54-110 46-110 46-2.15-15.27-2.75-32.82-2-51 0 0 53.96-60.55 117-33" style="fill:#99cc33"/>
								<path d="m1359 3964c-5.29-1.42-0.52 30.39-2 36-11.69 29.54-113 47-113 47-2.15-15.16-2.75-32.72-2-51 0 0 47.36-56.05 117-32" style="fill:#669900"/>
								<path d="m1310 3963c-6.52-0.25-12.09 12.29-12 28-0.09 15.21 5.48 27.75 12 28 7.23-0.25 12.8-12.79 13-28-0.2-15.71-5.77-28.25-13-28" style="fill:#000000"/>
								<path d="m809.2 2884s-61.85-109.9 211-44c0 0 154 13.34 180 40 13.55-9.06 105.6-41.32 137-49 74.55-17.26 167 93 167 93s50.55 115.2 81 115c31.15 0.25-4-17-4-17s-72.65-111.5-68-129c0 0-57.45-220.1-233-229 0 0-178.1-10.31-163-75 0 0 96.55 26.74 123 0 0 0 118.8 4.74 31-66l-75-127s1.49-43.36-110-5c-107.9 37.74-221 180-221 180s-175.6 159.7-56 313" style="fill:#000000"/>
								<path d="m796.2 2840s-22.45-105.5 382 9c0 0 48.75-0.06 75-9 26.55-8.66 158.6-39.46 181-26 0 0-79.65-149.9-207-132 0 0-145.4-17.86-141-71 0 0 43.95-78.86 97-105 0 0 30.55-26.66 26-62-4.25-35.06-35.05-52.66-57-61-22.05-9.26-57.25 25.94-75 26-17.45-0.06-109.9 70.34-158 123-48.65 52.94-141.1 184.9-137 216 4.75 30.54 14 92 14 92" style="fill:#e69999"/>
								<path d="m831.2 2648c28.35-43.26 63.55-89.46 88-116 48.15-52.66 140.6-123.1 158-123 17.75-0.06 52.95-35.26 75-26 21.95 8.34 52.75 25.94 57 61 4.55 35.34-26 62-26 62-33.98 16.6-64.12 55.02-81 81 0 0 1.55-28.46-56-20-56.85 9.14-114.1 39.94-132 75-17.25 35.34-43.65 61.74-26 22 17.55-39.46 43.95-79.06 62-83 17.15-4.86 12.75-18.06-14-14-26.05 4.74-56.85 9.14-105 66" style="fill:#b26666"/>
								<path d="m802.2 2880s19.95 149.4 33 193c0 0-8.648 75.15 18 121 26.15 46.55 48.15 114.8 81 174 33.15 59.55 35.35 103.6 79 121 44.35 17.75 110.4 112.4 141 123 30.95 11.35 29 3 29 3s74.55 162.4 224 118c0 0-178 31.15-4 135 0 0-53.05-12.55-17 64 24.46 51.8 18.95-22.65-102-152 0 0-55.05-95.05-112-128-57.45-33.05-189.4-110-203-152-12.85-41.65-48.05-105.4-70-123-22.05-17.65-52.85-63.85-57-101 0 0-13.45-44.25-29-57-15.25-13.65-17.45-48.85-17-71-0.449-21.85-22.45-52.65-20-79 0 0 8.551-209.1 4-231l22 42" style="fill:#992600"/>
								<path d="m708.2 2829s-22.45 15.54-71-50c0 0 80.45-363.5 80-379 0 0 12.55 23.24-2 102-14.05 79.64-24 219-24 219l17 108" style="fill:#ffffff"/>
								<path d="m945.2 3496s-193.4-35.45-189-357l-9-272s-13.05 281.2-26 299c-13.45 17.35 30.55 140.6-5 75 0 0-153.6-154.4-66-388 0 0 16.85-35.96-16 15 0 0-50.75 138.2-39 209 0 0 2.551 23.85 23 55 0 0 95.05 128.4 125 154 0 0 19.55 158 189 215 0 0 62.65 25.55 13-5" style="fill:#992600"/>
								<path d="m2479 4224c6.81 3.84 6.71 14.52 13 16 12.73 4.2 14.54 15.94 20 25 9.84 14.07 11.96 30.93 18 47 3.35 8.04 3.65 18.54 0 26-12.71 27.09-20.43 54.03-36 81-3.24 4.67-6.12 13.4-8 20-5.43 15.2-19.25 26.1-29 41-2.88 4.47 2.89 14.65-5 16-9.85 0.73-25.79 7.11-28-4-6.82-28.63 4.3-56.39 15-83-8.65-7.86-4.98-17.99-3-26 7.5-40.1-5.68-76.97-14-115-0.3-1.32 3.46-3.5 3-4-13.29-29.73-29.26-56.62-49-83-8.61-10.73-18.2-20.8-24-32-3.71-9.16-8.2-19.78-5-31-38.23-30.23-62.98-72.52-92-115-4.79-7.31-1.59-20.61 4-24 9.42-3.95 19.93 7.32 25 17 4.38 7.3 8.27 14.45 14 22 1.13 1.45-0.84 6.06 1 7 28.61 26.21 46.97 58.5 74 85 21.4 3.17 38.31 14.15 58 25 2.92 2.26 8.69-0.48 12 2 19.16 12.61 19.14 35.01 20 56 0.86 9.74 3.01 24.23 16 31" style="fill:#000000"/>
								<path d="m2381 4273c1.66 0.92-0.04 5.58 1 8 1.94 3.52 6.37 5.59 8 9 1.35 2.52-0.44 6.7 1 8 25.72 27.18 28.55 60.45 17 93 11.41 6.97 12.09 20.85 7 30-8.97 18.87-11.1 40.05-22 57-8.64 13.99-26 27.67-41 13-4.71-4.06-8.24-12.72-5-21 0.52-1.34 3.65-2.95 3-4-0.82-3.41-6.83-5.88-7-9-0.22-16.33-10.72-32.95-4-48 8.71-17.49 17.71-37.91 25-57-13.43-23.73-2.06-50.66-21-71-1.84-1.92-1.74-6.16 0-8 2.81-5.73 7.28-10.2 13-13 1.85-1.74 5.68-1.76 8 0 6.23 3.58 10.61 8.94 17 13" style="fill:#000000"/>
								<path d="m3072 4386c15.51-19.21 18.7-49.96-4-65 6.21-36.65 43.07-14.88 66-9-1.04 4.22 1.46 8 5 8 11.2 0.22 18.68 11.57 30 10 5.14 16.68 23.15 24.4 30 40 19.22 40.22 12.72 87.23-16 123-1.93 2.73 0.46 8.41-1 12-8.22 24.72-30.96 28.18-52 36-13.19 42.38-20.46 86.71-40 127-17.59 3.1-25.27 22.23-40 30-14.64 8.06-20.89-9.31-20-21-0.36-2.07 4.61-4.54 3-9-1.09-1.36-3.95-2.57-4-4 0.05-1.54 2.49-2.98 4-4-10.14-9.47-25.79-14.71-29-27-10.53-41.12 17.77-75.5 36-111 6.63-12.19-1.47-26.17-10-39-4.65-8.11-3.46-20.5 0-30 7.84-25.56 25.35-44.69 42-67" style="fill:#000000"/>
								<path d="m2663 4184c-15.89-20.11-53.42-48.37-21-70 1.8-1 5.88-1.04 8 0 22.01 17.65 44.04 27.58 71 34 1.2 0.3 4.21-4.83 8-3 18.02 7.67 40.13 7.03 53 22 41.59-2.71 80.8 9.56 118 24 12.88 4.88 26.84 11.03 40 17 15.19 5.89 28.43 16.09 41 29 1.13 1.14 5.02 0.15 8 0-0.48 9.64 10.1 11.04 13 18 0.83 2.43-0.82 6.79 1 8 23.16 17.84 33.28 40.04 20 66-2.71 6.55-5.45 13.34-12 19-11.61 9.6-23.73 0.21-35 4-2-7.36-10.02-5.46-14-8-9.71-4.47-24.37 1.96-34-3-14.81-7.5-28.46-9.36-44-14-3.53-0.41-12.09 0.65-14-6-1.32 1.22-2.95 3.8-4 4-21.11-4.8-34.96-7.15-49-26-1.41-1.23-6.27 0.74-8-1-10.55-8.63-15-22.21-27-30-2.32-0.95-6.2 0.9-8-1-7.44-4.26-11.47-11.31-19-16-3.16-2.75-7.55 0.82-7 4 2.49 21.06 9.68 40.71 3 61 23.2 28.07 50.88 49.51 71 80-0.09 23.38 7.53 46.98 6 70 0.18 1.95-2.99 10.02-4 14-3.81 9.23 6.16 20.95-3 29-15.57 13.15-29.79 3.51-39-12-20.07-4.54-42.79-12.16-60 1-11.23 9.07-17.59 19.04-26 31-11.21 13.97-7.53 29.77-7 47 0.31 1.38-3.16 2.88-3 4-0.14 1.84 2.28 3.28 4 5-8.02 6.64-11.04 18.27-22 22 3.11 11.76-4.33 21.49-14 25-21.86 7.41-40.3-13.62-61-14-5.77-0.63-10.91 10.79-18 14-4.8 2.73-12.54 3.1-17 0-7.09-5.37-13.57-6.62-22-9-17.7-4.68-31.75-16.71-48-26-16.37-9.54-26.87-25.35-39-40-10.11-12.54-11.6-39.1 4-45 20.29-6.75 34.64 22.99 56 19 3.7-0.16 5.96-3.58 5-8 4.03-1.05 6.43 1.47 9 5 8.99-11.66 21.79-15.37 32-25 10.78-9.91 29.98-5.31 41-16 16.97-16.8 10.82-46.29 32-61-6.3-14.09-12.97-28.14-17-44-2.76-13.1 8.18-26.27 21-25 14.33 0.77 17.21 9.11 23 21 2.49-2.99 7.64-6.25 7-9-4.83-25.89-16.13-47.81-21-75-0.82-3.04-4.17-5.26-8-4-5.6-45.69-50.17-72.02-78-107-4.6-5.36-4.64-19.1 0-24 15.29-14.79 36.85 2.22 56 8 1.89 13.02 11.34 23.38 26 23 2.81-0.35 5.39 5.61 9 7 3.79 1.56 9.31-0.9 12 1 19.47 13.42 34.96 25.59 54 39 2.19 1.11 5.98-0.64 8 1 3.93 1.33 5.98 5.59 10 8 3.36 1.82 6.03-1.37 8-4-6.96-4.29-7-14.82-13-17-8.93-2.98-15.1-8.63-23-14-2.72-1.67-9.97 1.06-11-1-6.7-11.22-19.72-16.04-28-26" style="fill:#000000"/>
								<path d="m2054 4728s-101.7 31.34-224-251c0 0-26.85-57.25-53-79-26.65-22.25-149.8-61.85-172-106l-114-176s162.6 176.2 198 203c0 0 87.75 91.95 53 17 0 0-154.4-118.6-141-220 0 0-61.85-158.2-71-180 0 0 176.4 351.8 203 365 26.15 13.15 39.35 13.15 26-26-13.05-40.05-17.45-220.4-48-242 0 0 87.75 224 79 259 0 0 35.15 39.75 62-17l-14-176 49-132s-26.65 122.8-9 294c0 0-22.05 114.8 22 53 43.95-61.45 149.6-127.4 150-180 0 0-57.65 193.4-159 246l-44-66-13 22s-39.65 8.95 9 84c48.15 74.55 44 83 44 83s70.15-78.85 88-79c0 0 145 83.75 158-185 0 0 74.95 158.8-26 234 0 0-163 21.55-150 79l79 136c39.95 57.35 22 27 22 27" style="fill:#000000"/>
								<path d="m1834 4547s-140.8 0.35-176-57l-79-105s189 109.6 233 123c43.95 12.95 22 39 22 39" style="fill:#000000"/>
								<path d="m1394 4477s-22.05-13.25-26-44c-4.85-30.85-31.25-35.25-22-66 8.35-30.85 30.35-57.25 30-13 0.35 43.75 17.95 65.75 27 79 8.55 13.15 26.15 61.55-9 44" style="fill:#000000"/>
								<path d="m1297 3804s-92.25 43.75-127 83c-35.65 39.95-30.68-16.87-84-13-64.37 5-53 181-53 181l-44-84s-13.05-158.4 75-132c42.93 12.84 57.15-4.45 40-13-18.05-9.05 61.15-13.45 30-31-30.45-17.65 128 39.55 102-75l61 84" style="fill:#000000"/>
								<path d="m1159 3645s-169.9-48.05-209 58c0 0-53.25-26.85-29-60 24.15-32.85 37-37 37-37s59.75-13.45 53-22c-6.45-9.05-33-46-33-46s112.4 65.55 181 107" style="fill:#000000"/>
								<path d="m3671 2785c-4.73-23.34-23.12-32.14-44-39-21.12 10.08-49.7 44.24-70 22-5.65 4.82-14.22 5.48-18 13-5.12 9.64-2.13 21.14-6 30-5.89 13.91-13.68 28.94-12 45 20.23 7.37 26.77 28.34 22 48-1.2 2.56-5.92 4.72-4 9 2.32 3.12 5.82 5.61 9 9-1.72-1.93-3.32-4.5-5-4-6.25 0.89-4.89 7.89-3 12 5.98 19.36 28.13 22.26 43 9 2.78 6.37 8.38 4.23 13 5-0.39 5.92 4.1 11.71 6 16 5.98 12.41 23.89 0.25 33 7 11.5 9.05 23.19 16.74 35 10 19.95-11.03 38.75-24.36 52-44 6.26-8.69 8.9-22.78 8-33-0.16-7.43-15.35-3.56-19-14-7.21-19.01 12.93-24.72 21-39 2.42-4.28-0.48-7.62-4-9-4.47-1.11-13.09 0.97-12-4 11.12-35.13-19.2-42.59-45-49" style="fill:#ffffff"/>
								<path d="m3565 2570c0.27 18.66-17.34 37.97-4 57 1.45-1.73 2.89-4.16 4-4 1.85-0.16 3.29 2.27 5 4 16.21-24.64 56.38-34.84 55-66-0.43-5.07-12.38-15.16-2-22-20.38-15.09-20.99-41.16-31-62-13.86 3.29-27.19 7.28-40 13 4.03 16.68 2.75 35.21 12 50 4.54 7.41 1.38 19.28 1 30" style="fill:#ffffff"/>
								<path d="m1737 2669s-185.3-112-31 57c97.15 105.3 207 167 207 167s114.6 48.35 154 62c39.75 12.75 207 69.95 242 74 35.35 4.75 141 48.75 216 5 74.55-44.25 163-93 163-93s-180.8 92.75-220 66c-40.05-26.05-119.2-21.65-185-57 0 0-163-48.26-198-70-35.45-22.26-149.8-149.9-167-141-18.05 8.74 3.95 13.14 17 44 13.35 30.74-8.65 48.34-97-22-87.65-70.46-101-92-101-92" style="fill:#cccccc"/>
								<path d="m1819 2734s15.11 143.6 108 125c0 0 90.86 46.17 121 68 0 0 89.33 18.54 104 25 203 96.03 364.9 46.32 371 59 5.94 11.95 221.8-66.34 262-111 3.82-5.16-113 61.28-220 82-90.71 17.84-328.3-2.63-448-64-33-16.13-131.4-79.75-159-79-28.07 1.7-139-105-139-105" style="fill:#000000"/>
								<path d="m1777 2453s-167.4 26.34 17 44c0 0 198.4 21.94 242 79 0 0 150 101.3 181 106 30.55 4.14 360.6 83.34 365 110 4.35 26.14 65.95 26.14 84 17 17.15-8.46 8.35-21.66-22-30-31.25-9.26-374.4-189.7-445-203-70.25-13.06-197.8-96.66-251-110-52.45-13.06-171-13-171-13" style="fill:#cccccc"/>
								<path d="m1991 2534s-93.93 9.44 1 18c0 0 96.66 38.11 119 67 0 0 76.79 52.22 93 54 15.32 2.72 168.9 43.28 171 57 2.39 13.3 377.1 151.7 426 117 31.76-23.5-77.15-5.06-183-54-15.03-6.39-387.4-166.8-423-174-36.5-6.36-101.8-49.16-129-56-26.9-6.68-75-29-75-29" style="fill:#000000"/>
								<path d="m1904 2510s57.55 4.54 44-13c-12.85-17.66-39-9-39-9l-5 22" style="fill:#000000"/>
								<path d="m1825 2493s57.35 3.94 44-14c-13.05-17.26-39-8-39-8l-5 22" style="fill:#000000"/>
								<path d="m1711 2475s56.95 4.34 44-13c-13.45-17.86-40-9-40-9l-4 22" style="fill:#000000"/>
								<path d="m1627 2466s57.35 4.54 44-13c-13.05-17.66-39-9-39-9l-5 22" style="fill:#000000"/>
								<path d="m2050 2902s47.95-0.26 35-18c-13.45-17.46-49-13-49-13l14 31" style="fill:#000000"/>
								<path d="m1940 2840s71.12 23.69 44-13c-13.65-17.66-40-9-40-9l-4 22" style="fill:#000000"/>
								<path d="m1816 2787s57.55 4.74 44-13c-12.85-17.46-39-9-39-9l-5 22" style="fill:#000000"/>
								<path d="m1733 2721s56.95 4.74 44-13c-13.45-17.46-40-9-40-9l-4 22" style="fill:#000000"/>
								<path d="m1658 2669s57.15 3.94 44-14c-13.25-17.26-40-8-40-8l-4 22" style="fill:#000000"/>
								<path d="m2088 2598s75.98 6.02 58-17c-17.15-23.82-52-12-52-12l-6 29" style="fill:#000000"/>
								<path d="m2202 2651s76.38 5.82 59-18c-17.75-23.02-53-11-53-11l-6 29" style="fill:#000000"/>
								<path d="m2321 2699s76.18 6.22 59-17c-17.95-23.62-53-12-53-12l-6 29" style="fill:#000000"/>
								<path d="m2435 2752s76.58 6.02 59-17c-17.55-23.82-53-12-53-12l-6 29" style="fill:#000000"/>
								<path d="m2132 2950s75.98 6.02 58-17c-17.15-23.82-61-21-61-21l3 38" style="fill:#000000"/>
								<path d="m2242 2985s75.98 6.22 58-17c-17.15-23.62-65-21-65-21l7 38" style="fill:#000000"/>
								<path d="m1992 2545s57.55 4.74 44-13c-12.85-17.46-39-9-39-9l-5 22" style="fill:#000000"/>
								<path d="m1187 3637s-48.25-97.25-53-132c0 0 9.15 96.35 22 118 13.55 22.35 31 14 31 14" style="fill:#992600"/>
								<path d="m985.2 3483s-35.45-158.8-31-190c0 0-13.25 128-9 141 4.551 13.35 40 49 40 49" style="fill:#992600"/>
								<path d="m1214 4303-3-35-24-2s156.4-138.8 163-222c0 0 8.75 89.75-136 259" style="fill:#cccccc"/>
								<path d="m1257 4289c-4.37 4.81-1.96 13.01-6 16-9.34 5.54 13.83 6.17 11 14-3.89 13.31-1.83 13.54-3 28-0.8 6.16 5.67 23.1 10 28 15.81 18.11 1.24 50.36 19 67 3.63 3.6 7.77 9.67 11 14 7.15 10.86 20.17 16.23 31 25 3.12 3.38 0.91 12.47 7 11 8.02-0.8 21.67 0.63 21-9-1.07-22.95-15.68-41.87-30-60 5.2-7.96 0.16-14.94-3-21-14.65-28.89-12.57-60.14-14-91-0.54-1.32-3.92-2.17-4-3 4.05-25.44 10.48-49.63 20-74 4.17-10.38 9.36-20.22 11-30 1.23-7.97 2.36-17.13-2-25 22.25-31.68 7.86-60.84 21-100 1.99-6.55 20.61-27.61 16-26-28.13 9.75-29.36 14.13-31 22-1.92 7.26-5.55 22.41-8 29-0.86 1.83-2.74 22.55-4 24-16.24 26.1-1.3 24.16-16 50-16.08 7.58-26.71 19.73-39 33-2.24 1.75 10.34 9.71 8 12-11.67 14.24-24.35 22.68-21 39 2.05 7.69 3.56 19.32-5 27" style="fill:#000000"/>
								<path d="m1218 4270s4.35-74.65 31-92c26.15-17.85 12.95-9.05-22 4-35.45 13.35-22 22-22 22s-31.05-4.25-5-26c26.75-22.25 66.35-48.65 49-49-17.85 0.35-101.4 44.35-101 75-0.45 30.95-11 76-11 76s11.65 8.85 64 8c0 0 15.85-7.95 17-18" style="fill:#000000"/>
								<path d="m1209 4066s-93.57 30.25-297-7c0 0 99.49 22.81 306-2 113.2-14-9 9-9 9" style="fill:#ffffff"/>
								<path d="m1209 4066s-93.57 30.25-297-7c0 0 99.49 22.81 306-2 113.2-14-9 9-9 9z" style="fill:none;stroke-linecap:round;stroke-miterlimit:10;stroke-width:1.1;stroke:#000000"/>
								<path d="m1232 4066s-90.48 39.03-296 19c0 0 100.7 14.62 304-28 111.9-23.69-8 9-8 9" style="fill:#ffffff"/>
								<path d="m1232 4066s-90.48 39.03-296 19c0 0 100.7 14.62 304-28 111.9-23.69-8 9-8 9z" style="fill:none;stroke-linecap:round;stroke-miterlimit:10;stroke-width:1.1;stroke:#000000"/>
								<path d="m1252 4065s-87.69 45.64-294 41c0 0 101.4 7.05 301-51 109.8-31.52-7 10-7 10" style="fill:#ffffff"/>
								<path d="m1252 4065s-87.69 45.64-294 41c0 0 101.4 7.05 301-51 109.8-31.52-7 10-7 10z" style="fill:none;stroke-linecap:round;stroke-miterlimit:10;stroke-width:1.1;stroke:#000000"/>
								<path d="m1266 4063s-75.2 47.23-261 59c0 0 91.92-1.56 267-69 95.48-36.64-6 10-6 10" style="fill:#ffffff"/>
								<path d="m1266 4063s-75.2 47.23-261 59c0 0 91.92-1.56 267-69 95.48-36.64-6 10-6 10z" style="fill:none;stroke-linecap:round;stroke-miterlimit:10;stroke-width:1.1;stroke:#000000"/>
								<path d="m2534 3947s-10.24-6.9-8 6c2.48 13.08 312.8 158 353 155 0 0-333.2-145.1-345-161" style="fill:#ffffff"/>
								<path d="m2534 3947s-10.24-6.9-8 6c2.48 13.08 312.8 158 353 155 0 0-333.2-145.1-345-161z" style="fill:none;stroke-linecap:round;stroke-miterlimit:10;stroke-width:1.1;stroke:#000000"/>
								<path d="m2497 3940s-9.98-7.71-9 5c1.68 13.55 299.6 182.4 339 183 0 0-319.8-171.2-330-188" style="fill:#ffffff"/>
								<path d="m2497 3940s-9.98-7.71-9 5c1.68 13.55 299.6 182.4 339 183 0 0-319.8-171.2-330-188z" style="fill:none;stroke-linecap:round;stroke-miterlimit:10;stroke-width:1.1;stroke:#000000"/>
								<path d="m2461 3925s-9.6-8.46-9 5c0.32 12.92 218.3 183.4 326 204 0 0-198.1-89.39-317-209" style="fill:#ffffff"/>
								<path d="m2461 3925s-9.6-8.46-9 5c0.32 12.92 218.3 183.4 326 204 0 0-198.1-89.39-317-209z" style="fill:none;stroke-linecap:round;stroke-miterlimit:10;stroke-width:1.1;stroke:#000000"/>
								<path d="m2429 3905s-8.32-8.1-8 4c0.52 11.65 196.7 165.1 294 184 0 0-178.7-80.84-286-188" style="fill:#ffffff"/>
								<path d="m2429 3905s-8.32-8.1-8 4c0.52 11.65 196.7 165.1 294 184 0 0-178.7-80.84-286-188z" style="fill:none;stroke-linecap:round;stroke-miterlimit:10;stroke-width:1.1;stroke:#000000"/>
								<path d="m2080 2277s-166.8 26.34 18 44c0 0 198 21.94 242 79 0 0 149.6 101.3 180 106 31.15 4.14 211.6 43.74 216 70 4.35 26.54 70.35 52.94 88 44 17.55-8.66 17.55-109.9-13-119-31.05-8.46-237.8-87.66-308-101-70.65-13.06-198.2-96.66-251-110-52.85-13.06-172-13-172-13" style="fill:#cccccc"/>
								<path d="m2883 2688s-32.65-17.26-46-46c0 0-70.25-116.5-226-152 0 0-253.4-98.66-339-121 0 0-147.6-54.66-229-46 0 0-77.05-2.06-9-20 0 0 222.4 22.34 260 42 0 0 171.4 57.34 204 86 33.35 28.54 233.6 83.54 258 106 23.95 21.54 131.8 113.9 127 151" style="fill:#000000"/>
								<path d="m2237 2342s57.97 2.21 45-15c-12.39-16.87-39-7-39-7l-6 22" style="fill:#000000"/>
								<path d="m2158 2327s57.74 2.34 45-15c-12.62-16.75-40-7-40-7l-5 22" style="fill:#000000"/>
								<path d="m2044 2313s57.03 2.63 44-14c-12.34-17.46-39-8-39-8l-5 22" style="fill:#000000"/>
								<path d="m1960 2307s57.05 2.63 44-14c-12.31-17.46-39-8-39-8l-5 22" style="fill:#000000"/>
								<path d="m2419 2423s76.88 3.42 60-19c-16.88-22.95-53-10-53-10l-7 29" style="fill:#000000"/>
								<path d="m2533 2472s65.33 36.09 59-20c-2.52-27.7-52-9-52-9l-7 29" style="fill:#000000"/>
								<path d="m2633 2503s78.98 40.45 60-20c-8.65-26.59-53-10-53-10l-7 30" style="fill:#000000"/>
								<path d="m2738 2556s47.84 53.72 60-20c4.03-27.48-53-9-53-9l-7 29" style="fill:#000000"/>
								<path d="m2325 2374s57.43 2.28 45-15c-12.92-16.81-40-7-40-7l-5 22" style="fill:#000000"/>
								<path d="m2717 3709s-8.46-7.2-8 5c-0.47 11.35 191.8 157.3 289 172 0 0-177-73.54-281-177" style="fill:#ffffff"/>
								<path d="m2717 3709s-8.46-7.2-8 5c-0.47 11.35 191.8 157.3 289 172 0 0-177-73.54-281-177z" style="fill:none;stroke-linecap:round;stroke-miterlimit:10;stroke-width:1.1;stroke:#000000"/>
								<path d="m2749 3007s242.2-246.1 343-286c0 0 101.6-122.9 58-409 0 0-35.64-83.46-71 145 0 0 35.36 277.5-88 102 0 0-92.25 108.4-22 105 0 0 35.36-21.86 40-4 4.16 17.34-83.85 166.9-273 325-189.2 158.8 13 22 13 22" style="fill:#000000"/>
								<path d="m2107 2581s-2.45 19.34 17 11c20.15-9.26 1056-77.46 1404-341 0 0-497.2 254.7-1421 330" style="fill:#ffffff"/>
								<path d="m2107 2581s-2.45 19.34 17 11c20.15-9.26 1056-77.46 1404-341 0 0-497.2 254.7-1421 330z" style="fill:none;stroke-linecap:round;stroke-miterlimit:10;stroke-width:1.1;stroke:#000000"/>
								<path d="m2221 2629s-2.05 19.74 18 11c19.55-8.86 1522 2.14 1782-354 0 0-242.2 276.9-1800 343" style="fill:#ffffff"/>
								<path d="m2221 2629s-2.05 19.74 18 11c19.55-8.86 1522 2.14 1782-354 0 0-242.2 276.9-1800 343z" style="fill:none;stroke-linecap:round;stroke-miterlimit:10;stroke-width:1.1;stroke:#000000"/>
								<path d="m2349 2673s-2.45 19.74 17 11c20.15-8.86 1928 134.1 2187-222 0 0-105.4 281.3-2204 211" style="fill:#ffffff"/>
								<path d="m2349 2673s-2.45 19.74 17 11c20.15-8.86 1928 134.1 2187-222 0 0-105.4 281.3-2204 211z" style="fill:none;stroke-linecap:round;stroke-miterlimit:10;stroke-width:1.1;stroke:#000000"/>
								<path d="m2459 2726s-2.45 19.54 17 11c20.15-9.06 1364 415.6 1624 59 0 0-147.4 270.8-1641-70" style="fill:#ffffff"/>
								<path d="m2459 2726s-2.45 19.54 17 11c20.15-9.06 1364 415.6 1624 59 0 0-147.4 270.8-1641-70z" style="fill:none;stroke-linecap:round;stroke-miterlimit:10;stroke-width:1.1;stroke:#000000"/>
								<path d="m1821 2475s-2.45 19.74 17 11c20.15-8.86 216-33.06 238-460 0 0-79.25 462.1-255 449" style="fill:#ffffff"/>
								<path d="m1821 2475s-2.45 19.74 17 11c20.15-8.86 216-33.06 238-460 0 0-79.25 462.1-255 449z" style="fill:none;stroke-linecap:round;stroke-miterlimit:10;stroke-width:1.1;stroke:#000000"/>
								<path d="m1724 2457s-2.25 20.14 18 11c19.35-8.46 175.6 42.14 145-385 0 0 12.95 387.5-163 374" style="fill:#ffffff"/>
								<path d="m1724 2457s-2.25 20.14 18 11c19.35-8.46 175.6 42.14 145-385 0 0 12.95 387.5-163 374z" style="fill:none;stroke-linecap:round;stroke-miterlimit:10;stroke-width:1.1;stroke:#000000"/>
								<path d="m1636 2453s-2.25 19.74 18 11c19.35-8.86 188.8-15.46 52-262 0 0 106 264.1-70 251" style="fill:#ffffff"/>
								<path d="m1636 2453s-2.25 19.74 18 11c19.35-8.86 188.8-15.46 52-262 0 0 106 264.1-70 251z" style="fill:none;stroke-linecap:round;stroke-miterlimit:10;stroke-width:1.1;stroke:#000000"/>
								<path d="m2157 2941s-5.35-22.36 12-9c176.4 138.9 533.3 786.8 1146 849 0 0-421.6 133-1158-840" style="fill:#ffffff"/>
								<path d="m2157 2941s-5.35-22.36 12-9c176.4 138.9 533.3 786.8 1146 849 0 0-421.6 133-1158-840z" style="fill:none;stroke-linecap:round;stroke-miterlimit:10;stroke-width:1.1;stroke:#000000"/>
								<path d="m2280 2960s-15.26 13.56 5 20c20.84 7.31 1258 804.8 1690 717 0 0-298.3 82.81-1695-737" style="fill:#ffffff"/>
								<path d="m2280 2960s-15.26 13.56 5 20c20.84 7.31 1258 804.8 1690 717 0 0-298.3 82.81-1695-737z" style="fill:none;stroke-linecap:round;stroke-miterlimit:10;stroke-width:1.1;stroke:#000000"/>
								<path d="m2050 2893s-5.11-17.28 14-7c98.43 56.78 138.2 686.1 618 700 0 0-357 161.8-632-693" style="fill:#ffffff"/>
								<path d="m2050 2893s-5.11-17.28 14-7c98.43 56.78 138.2 686.1 618 700 0 0-357 161.8-632-693z" style="fill:none;stroke-linecap:round;stroke-miterlimit:10;stroke-width:1.1;stroke:#000000"/>
								<path d="m1831 2772s-11.52-14.12 10-11c112.7 14.33 348.1 468.3 837 412 0 0-351.7 158.2-847-401" style="fill:#ffffff"/>
								<path d="m1831 2772s-11.52-14.12 10-11c112.7 14.33 348.1 468.3 837 412 0 0-351.7 158.2-847-401z" style="fill:none;stroke-linecap:round;stroke-miterlimit:10;stroke-width:1.1;stroke:#000000"/>
								<path d="m1955 2839s-8.97-15.75 12-9c107.4 36.14 251.3 526.9 742 566 0 0-375.6 87.27-754-557" style="fill:#ffffff"/>
								<path d="m1955 2839s-8.97-15.75 12-9c107.4 36.14 251.3 526.9 742 566 0 0-375.6 87.27-754-557z" style="fill:none;stroke-linecap:round;stroke-miterlimit:10;stroke-width:1.1;stroke:#000000"/>
								<path d="m1754 2716s-9.71-11.74 8-9c90.98 11.39 281.7 379.1 678 334 0 0-285.2 127.7-686-325" style="fill:#ffffff"/>
								<path d="m1754 2716s-9.71-11.74 8-9c90.98 11.39 281.7 379.1 678 334 0 0-285.2 127.7-686-325z" style="fill:none;stroke-linecap:round;stroke-miterlimit:10;stroke-width:1.1;stroke:#000000"/>
								<path d="m1670 2651s-10.75-11.78 7-10c45.6 2.92 382.6 366.8 586 196 0 0-132.4 206.2-593-186" style="fill:#ffffff"/>
								<path d="m1670 2651s-10.75-11.78 7-10c45.6 2.92 382.6 366.8 586 196 0 0-132.4 206.2-593-186z" style="fill:none;stroke-linecap:round;stroke-miterlimit:10;stroke-width:1.1;stroke:#000000"/>
								<path d="m2435 3002s-13.05 14.78 8 19c21.45 4.24 1349 639.1 1767 498 0 0-285.6 119.2-1775-517" style="fill:#ffffff"/>
								<path d="m2435 3002s-13.05 14.78 8 19c21.45 4.24 1349 639.1 1767 498 0 0-285.6 119.2-1775-517z" style="fill:none;stroke-linecap:round;stroke-miterlimit:10;stroke-width:1.1;stroke:#000000"/>
								<path d="m2067 2295s-2.05 19.34 18 11c19.55-9.26 189-15.86 53-262 0 0 105.2 263.7-71 251" style="fill:#ffffff"/>
								<path d="m2067 2295s-2.05 19.34 18 11c19.55-9.26 189-15.86 53-262 0 0 105.2 263.7-71 251z" style="fill:none;stroke-linecap:round;stroke-miterlimit:10;stroke-width:1.1;stroke:#000000"/>
								<path d="m2182 2312s-2.65 19.94 17 11c19.95-8.66 215.8-32.86 238-460 0 0-79.45 462.3-255 449" style="fill:#ffffff"/>
								<path d="m2182 2312s-2.65 19.94 17 11c19.95-8.66 215.8-32.86 238-460 0 0-79.45 462.3-255 449z" style="fill:none;stroke-linecap:round;stroke-miterlimit:10;stroke-width:1.1;stroke:#000000"/>
								<path d="m2256 2330s-1.85 19.54 18 11c19.75-9.06 290.4-46.46 550-403 0 0-391.6 404.9-568 392" style="fill:#ffffff"/>
								<path d="m2256 2330s-1.85 19.54 18 11c19.75-9.06 290.4-46.46 550-403 0 0-391.6 404.9-568 392z" style="fill:none;stroke-linecap:round;stroke-miterlimit:10;stroke-width:1.1;stroke:#000000"/>
								<path d="m2340 2352s-4.58 19.39 16 13c21-5.79 245.8 15.1 665-361 0 0-508.1 384.5-681 348" style="fill:#ffffff"/>
								<path d="m2340 2352s-4.58 19.39 16 13c21-5.79 245.8 15.1 665-361 0 0-508.1 384.5-681 348z" style="fill:none;stroke-linecap:round;stroke-miterlimit:10;stroke-width:1.1;stroke:#000000"/>
								<path d="m2455 2400s-5.18 19.8 16 14c20.4-6.39 403.6-55.9 972-441 0 0-815.7 463.9-988 427" style="fill:#ffffff"/>
								<path d="m2455 2400s-5.18 19.8 16 14c20.4-6.39 403.6-55.9 972-441 0 0-815.7 463.9-988 427z" style="fill:none;stroke-linecap:round;stroke-miterlimit:10;stroke-width:1.1;stroke:#000000"/>
								<path d="m2010 2528s-2.25 19.54 18 11c19.35-9.06 606.8-37.66 941-332 0 0-383.8 272.1-959 321" style="fill:#ffffff"/>
								<path d="m2010 2528s-2.25 19.54 18 11c19.35-9.06 606.8-37.66 941-332 0 0-383.8 272.1-959 321z" style="fill:none;stroke-linecap:round;stroke-miterlimit:10;stroke-width:1.1;stroke:#000000"/>
								<path d="m1900 2484s-2.25 19.54 18 11c19.35-9.06 290-46.46 550-403 0 0-392 404.9-568 392" style="fill:#ffffff"/>
								<path d="m1900 2484s-2.25 19.54 18 11c19.35-9.06 290-46.46 550-403 0 0-392 404.9-568 392z" style="fill:none;stroke-linecap:round;stroke-miterlimit:10;stroke-width:1.1;stroke:#000000"/>
								<path d="m2574 2451s-5.93 19.1 15 15c21.44-5 407.2-26.29 1003-368 0 0-854.8 378-1018 353" style="fill:#ffffff"/>
								<path d="m2574 2451s-5.93 19.1 15 15c21.44-5 407.2-26.29 1003-368 0 0-854.8 378-1018 353z" style="fill:none;stroke-linecap:round;stroke-miterlimit:10;stroke-width:1.1;stroke:#000000"/>
								<path d="m2667 2478s-6.53 18.5 15 14c20.84-4.6 406.6-25.89 1002-368 0 0-847.8 382.8-1017 354" style="fill:#ffffff"/>
								<path d="m2667 2478s-6.53 18.5 15 14c20.84-4.6 406.6-25.89 1002-368 0 0-847.8 382.8-1017 354z" style="fill:none;stroke-linecap:round;stroke-miterlimit:10;stroke-width:1.1;stroke:#000000"/>
								<path d="m2772 2533s-5.93 18.5 15 14c21.44-4.6 495.2-52.29 1482-430 0 0-1327 444.8-1497 416" style="fill:#ffffff"/>
								<path d="m2772 2533s-5.93 18.5 15 14c21.44-4.6 495.2-52.29 1482-430 0 0-1327 444.8-1497 416z" style="fill:none;stroke-linecap:round;stroke-miterlimit:10;stroke-width:1.1;stroke:#000000"/>
								<path d="m1548 2457s57.15 4.74 44-13c-13.25-17.46-40-9-40-9l-4 22" style="fill:#000000"/>
								<path d="m1887 2303s56.95 4.74 44-13c-13.45-17.46-40-9-40-9l-4 22" style="fill:#000000"/>
								<path d="m1790 2308s57.15 4.14 44-13c-13.25-18.06-40-9-40-9l-4 22" style="fill:#000000"/>
								<path d="m741.2 2438s55.39-14.8 37-27c-18.08-12.43-40 5-40 5l3 22" style="fill:#000000"/>
								<path d="m763.2 2543s55.39-14.2 37-27c-18.08-11.83-40 5-40 5l3 22" style="fill:#000000"/>
								<path d="m684.2 2592s55.19-14.8 37-27c-18.28-12.43-40 5-40 5l3 22" style="fill:#000000"/>
								<path d="m1561 1767s-17.45-0.46-61-22c-22.45-0.46-145.6-40.06-207-150 0 0 136.2 105.5 268 172" style="fill:#cccccc"/>
								<path d="m2526 747.2c1.58-2.406 2.18-7.023 5-7 7.63-0.652 21.2-3.961 20 3-9.51 47.4-19.12 101.7-65 122-6.61 2.652-22.48-1.891-23-12-1.69-16.38-2.97-31.22 0-47 3.73-15.98 27.46-16.09 38-1 9.85-18.25 14.6-38.53 25-58" style="fill:#cccccc"/>
								<path d="m2404 695.2c8.39-15.18 7-35.63 23-42 7.7-3.059 28.05 7.664 23 19-8.37 23.15-12.63 47.78-28 68-2.11 2.582 0.53 8.445-1 12-6.77 13.47-19.36 21.56-35 18-12.11-24.29 0.51-47.71 17-67 1.75-1.184-0.07-5.32 1-8" style="fill:#cccccc"/>
								<path d="m1969 752.2c-1.64 4.598-2.06 9.688 0 13 5.6 11.58 14.32 23.93 11 35-4.21 11.78-16.49 9.781-24 4-12.12-11.41-12.66-31.5-20-46-2.42-4.691-1.86-11-7-15-4.93-4.926-9.77-21.69-9-28 0.87-3.414-1.14-112.4 1-110 7.11 8.551 40.66 115.6 41 125 1.05 8.48 9.1 13.59 7 22" style="fill:#cccccc"/>
								<path d="m1687 827.2c28.5 27.65 59.19 60.22 54 101-0.95 10.79-20.47 4.992-23-4-8.35-40.19-30.78-69.46-59-96-24.18-22.29-44.66-92.07-47-98 40.42 58.16 65.25 88.36 75 97" style="fill:#cccccc"/>
								<path d="m1537 893.2c5.97 3.836 2.64 9.238 5 13 10.52 15.93 24.82 29.63 25 49 0.06 2.797-4.1 6.195-8 4-2.83-2.293-6.59-3.723-8-5-22.11-27.09-37.51-56.47-53-87-2.4-4.332-14.98-53.73-12-55 3.09-0.887 22.01 45.1 24 46 14.21 7.902 14.34 25.67 27 35" style="fill:#cccccc"/>
								<path d="m1721 678.2c5.16 9.34 22.5 22.56 21 32-1.04 10.55 4.11 26.42-6 19-13.75-10.57-51.7-25.41-55-89 0.05-6.582 32.77 23.04 40 38" style="fill:#cccccc"/>
								<path d="m1880 867.2c4.55 7.086 12.34 1.883 17 5 7.52 3.871 14.23 10.01 17 17 11.12 23.78 30.58 43.8 32 70-16.25 15.59-23.72-6.848-31-17-14.2 17.66-25.19-2.957-39-9-1.26 0.027-3.61 3.844-4 4-13.37-5.293-20.86-17.19-32-26-1.71-1.25-6.17 0.73-8-1-6.96-6.398-17.66-9.977-21-17-11.95-30.25-46.49-53.3-67-136 3.94-10.26 49.38 72.8 55 80 8.93 13.64 10.23-17.79 24-10 0.83-0.168 2.88-2.785 4-4 2.48 2.82 4.88 5.34 9 4 0.15 4.539-1.32 10.66 1 12 13.5 11.15 12.57 22.9 21 37 5.19-9.141 16.86-1.23 22-9" style="fill:#cccccc"/>
								<path d="m2538 268.2s81.35 224.7 33 348c0 0 125.4-237.7 75-361 0 0-4.65 114.5-49 170 0 0-43.65-141.3-59-157" style="fill:#cccccc"/>
								<path d="m2375 297.2s59.55 96.74-28 299c0 0-9.25-224.3-84-345 0 0 156.2 221.9 112 46" style="fill:#cccccc"/>
								<path d="m2265 319.2s-2.05 219.9 2 253c0 0-41.45-182.7-154-288 0 0 158.8 131.7 152 35" style="fill:#cccccc"/>
								<path d="m2160 671.2s65.55-149.7-44-352c0 0 69.95 134.1 17 211 0 0 28.75 37.54 27 141" style="fill:#cccccc"/>
								<path d="m1948 323.2s-10.65 171.9 9 196c0 0 2.35 70.54-2 82 0 0 43.95 67.74 46-14 0 0 15.55-85.46 46-136 0 0 39.95-59.46 38-130 0 0-110.2 332.3-137 2" style="fill:#cccccc"/>
								<path d="m1909 627.2s-72.85-118.9-93-328c0 0-15.05 68.34 27 227 0 0 45.95 169.1 66 101" style="fill:#cccccc"/>
								<path d="m1669 409.2s54.95 59.54 70 115c0 0 39.95 173.3-30 79 0 0 1.75-88.26-88-170 0 0 52.35 26.74 48-24" style="fill:#cccccc"/>
								<path d="m1605 464.2s37.55 191.5 46 200c0 0 20.15 37.74-11 3 0 0-96.45-211.7-140-284 0 0 87.55 100.9 105 81" style="fill:#cccccc"/>
								<path d="m1541 647.2s128 246.1-112-38c0 0 121.2 108.1 112 38" style="fill:#cccccc"/>
								<path d="m1372 807.2s52.75 207.1 81 205c0 0 90.55 98.94 18-18 0 0-66.05-105.3-59-213 0 0-7.05 105.5-40 26" style="fill:#cccccc"/>
								<path d="m5005 933.2s-131.8 109.8-159 148c0 0 148.2-203.2 148-280 0 0 27.75 82.25 11 132" style="fill:#cccccc"/>
								<path d="m5066 1175s-231.2 164.8-270 247c0 0 291.8-324.2 292-374 0 0 5.25 99.25-22 127" style="fill:#cccccc"/>
								<path d="m5253 2869s-132.2 87.75-149 66c0 0 115.8-71.75 143-165 0 0-16.25 98.75 6 99" style="fill:#cccccc"/>
								<path d="m5346 1983-192 132s208.8-186.8 214-231l-22 99" style="fill:#cccccc"/>
								<path d="m1048 2231 242-52" style="fill:none;stroke-linecap:round;stroke-miterlimit:10;stroke-width:11;stroke:#000000"/>
								<path d="m1601 449.2s-5.75 38.25-105-77" style="fill:none;stroke-linecap:round;stroke-miterlimit:10;stroke-width:11;stroke:#000000"/>
								<path d="m1661 394.2s22.25 71.25-49 22" style="fill:none;stroke-linecap:round;stroke-miterlimit:10;stroke-width:11;stroke:#000000"/>
								<path d="m2255 300.2s16.75 121.2-110-22" style="fill:none;stroke-linecap:round;stroke-miterlimit:10;stroke-width:11;stroke:#000000"/>
						</g>
				</g>
		</g>
</svg>
